<svg width="281" height="77" viewBox="0 0 281 77" fill="none" xmlns="http://www.w3.org/2000/svg">
<rect width="38" height="38" rx="8" transform="matrix(-1 0 0 1 281 19)" fill="url(#paint0_linear_38_121)"/>
<path d="M13.8889 30.3805C13.1494 30.3746 12.4185 30.539 11.7529 30.861C11.0872 31.1831 10.5046 31.6541 10.0504 32.2375C9.73598 31.6456 9.25855 31.1561 8.67458 30.827C8.09062 30.4979 7.42458 30.343 6.75529 30.3805C6.07208 30.3882 5.4012 30.5635 4.80152 30.8908C4.20183 31.2182 3.69165 31.6877 3.31573 32.2582V32.1275C3.31573 31.6879 3.14107 31.2663 2.83015 30.9554C2.51924 30.6446 2.09756 30.4699 1.65787 30.4699C1.21817 30.4699 0.796488 30.6446 0.485578 30.9554C0.174668 31.2663 0 31.6879 0 32.1275V40.7729C0 41.2125 0.174668 41.6341 0.485578 41.9449C0.796488 42.2558 1.21817 42.4304 1.65787 42.4304C2.09756 42.4304 2.51924 42.2558 2.83015 41.9449C3.14107 41.6341 3.31573 41.2125 3.31573 40.7729V35.7727C3.31573 34.2046 4.07931 33.393 5.32443 33.393C6.56955 33.393 7.27122 34.2046 7.27122 35.7727V40.7729C7.27122 41.2125 7.44589 41.6341 7.7568 41.9449C8.06771 42.2558 8.4894 42.4304 8.92909 42.4304C9.36878 42.4304 9.79047 42.2558 10.1014 41.9449C10.4123 41.6341 10.587 41.2125 10.587 40.7729V35.7727C10.587 34.2046 11.3505 33.393 12.5957 33.393C13.8408 33.393 14.5356 34.2046 14.5356 35.7727V40.7729C14.5356 41.2125 14.7102 41.6341 15.0211 41.9449C15.3321 42.2558 15.7537 42.4304 16.1934 42.4304C16.6331 42.4304 17.0548 42.2558 17.3657 41.9449C17.6766 41.6341 17.8513 41.2125 17.8513 40.7729V34.6791C17.8719 31.8661 16.3585 30.3805 13.8889 30.3805Z" fill="url(#paint1_linear_38_121)"/>
<path d="M28.7755 30.468C28.4078 30.476 28.0528 30.604 27.7646 30.8324C27.4765 31.0609 27.271 31.3774 27.1795 31.7335L24.7512 38.5219L22.2197 31.7129C22.1363 31.3541 21.9323 31.0348 21.6419 30.8083C21.3514 30.5817 20.992 30.4616 20.6237 30.468C20.4099 30.4596 20.1967 30.4948 19.997 30.5715C19.7972 30.6481 19.6152 30.7647 19.462 30.914C19.3088 31.0633 19.1877 31.2422 19.1059 31.4399C19.0241 31.6376 18.9835 31.8498 18.9865 32.0637C19.0041 32.3262 19.0645 32.5841 19.1653 32.8271L23.1552 42.0778L23.0452 42.3391C22.9591 42.5722 22.7947 42.7682 22.5802 42.8936C22.3657 43.0191 22.1142 43.0662 21.8688 43.0269C21.6341 43.0192 21.4021 42.9751 21.1809 42.8962C21.0046 42.8326 20.818 42.8023 20.6306 42.8068C20.4536 42.8085 20.2787 42.8457 20.1164 42.9163C19.954 42.9869 19.8076 43.0894 19.6856 43.2178C19.5637 43.3461 19.4688 43.4976 19.4066 43.6633C19.3444 43.829 19.3162 44.0055 19.3236 44.1824C19.3252 44.494 19.428 44.7966 19.6166 45.0447C19.8052 45.2928 20.0693 45.4729 20.3692 45.5579C20.9489 45.7678 21.5619 45.8704 22.1784 45.8606C24.1665 45.8606 25.1502 44.9664 26.1339 42.5867L30.2132 32.7858C30.3071 32.5348 30.3582 32.2697 30.3645 32.0018C30.3647 31.7956 30.3232 31.5916 30.2427 31.4018C30.1622 31.2121 30.0443 31.0405 29.8959 30.8973C29.7476 30.7542 29.5719 30.6424 29.3794 30.5686C29.1869 30.4948 28.9815 30.4606 28.7755 30.468Z" fill="url(#paint2_linear_38_121)"/>
<path d="M117.937 18.4083C117.384 18.4073 116.836 18.5156 116.325 18.7268C115.814 18.938 115.349 19.248 114.958 19.6391C114.567 20.0301 114.257 20.4945 114.046 21.0056C113.834 21.5167 113.726 22.0645 113.727 22.6175V42.6113L97.2721 21.0149C96.1095 19.5156 94.9195 18.5389 92.8557 18.5389H91.9683C91.4069 18.5344 90.8503 18.6415 90.3307 18.8542C89.8112 19.0669 89.3392 19.3808 88.9422 19.7777C88.5453 20.1746 88.2313 20.6465 88.0186 21.1659C87.8059 21.6853 87.6987 22.2419 87.7033 22.8032V53.6158C87.7033 54.7321 88.1468 55.8027 88.9363 56.5921C89.7259 57.3815 90.7967 57.825 91.9133 57.825C93.0299 57.825 94.1007 57.3815 94.8902 56.5921C95.6797 55.8027 96.1233 54.7321 96.1233 53.6158V32.8585L113.184 55.232C114.332 56.7314 115.557 57.7424 117.621 57.7424H117.896C118.457 57.747 119.014 57.6398 119.533 57.4272C120.053 57.2145 120.525 56.9006 120.922 56.5037C121.319 56.1068 121.633 55.6349 121.845 55.1155C122.058 54.596 122.165 54.0395 122.161 53.4782V22.6175C122.162 22.0633 122.053 21.5144 121.841 21.0024C121.629 20.4904 121.317 20.0254 120.925 19.6342C120.532 19.243 120.066 18.9332 119.553 18.7228C119.041 18.5124 118.491 18.4055 117.937 18.4083Z" fill="url(#paint3_linear_38_121)"/>
<path d="M81.9865 23.5938C81.9865 20.7525 79.6827 18.4492 76.8409 18.4492C73.9991 18.4492 71.6953 20.7525 71.6953 23.5938V52.6869C71.6953 55.5282 73.9991 57.8315 76.8409 57.8315C79.6827 57.8315 81.9865 55.5282 81.9865 52.6869V23.5938Z" fill="url(#paint4_linear_38_121)"/>
<path d="M194.377 49.9175H176.815V41.781H191.605C192.104 41.7856 192.599 41.6916 193.061 41.5044C193.524 41.3173 193.945 41.0407 194.3 40.6906C194.656 40.3404 194.938 39.9235 195.132 39.4639C195.326 39.0042 195.427 38.5108 195.43 38.012C195.428 36.9983 195.025 36.0267 194.308 35.31C193.591 34.5932 192.619 34.1897 191.605 34.1879H176.815V26.3266H194.095C194.594 26.3311 195.089 26.2371 195.552 26.05C196.014 25.8629 196.435 25.5863 196.791 25.2361C197.146 24.886 197.429 24.4691 197.622 24.0094C197.816 23.5498 197.917 23.0564 197.92 22.5576C197.917 21.5451 197.512 20.5753 196.795 19.86C196.079 19.1447 195.108 18.7422 194.095 18.7404H172.605C172.044 18.7358 171.487 18.843 170.967 19.0556C170.448 19.2683 169.976 19.5822 169.579 19.9791C169.182 20.376 168.868 20.8479 168.655 21.3674C168.443 21.8868 168.335 22.4434 168.34 23.0046V53.267C168.335 53.8282 168.443 54.3848 168.655 54.9042C168.868 55.4237 169.182 55.8956 169.579 56.2924C169.976 56.6893 170.448 57.0033 170.967 57.2159C171.487 57.4286 172.044 57.5358 172.605 57.5312H194.377C194.876 57.5367 195.37 57.4435 195.832 57.257C196.294 57.0706 196.715 56.7945 197.07 56.4448C197.425 56.0951 197.707 55.6786 197.9 55.2194C198.093 54.7602 198.194 54.2672 198.195 53.769C198.198 53.2654 198.101 52.7661 197.911 52.2998C197.72 51.8336 197.44 51.4094 197.085 51.0517C196.731 50.6939 196.309 50.4096 195.844 50.215C195.38 50.0204 194.881 49.9193 194.377 49.9175Z" fill="url(#paint5_linear_38_121)"/>
<path d="M143.023 18.7404H132.168C131.606 18.7358 131.049 18.843 130.53 19.0556C130.01 19.2683 129.538 19.5822 129.141 19.9791C128.745 20.376 128.431 20.8479 128.218 21.3674C128.005 21.8868 127.898 22.4434 127.902 23.0046V53.267C127.898 53.8282 128.005 54.3848 128.218 54.9042C128.431 55.4237 128.745 55.8956 129.141 56.2925C129.538 56.6893 130.01 57.0033 130.53 57.2159C131.049 57.4286 131.606 57.5358 132.168 57.5312H143.023C155.213 57.5312 163.66 49.0577 163.66 38.1495V38.0395C163.633 27.1038 155.213 18.7404 143.023 18.7404ZM154.717 38.2321C154.717 45.1099 150.012 49.8074 143.023 49.8074H136.433V26.4229H143.023C150.005 26.4229 154.717 31.2373 154.717 38.1152V38.2321Z" fill="url(#paint6_linear_38_121)"/>
<path d="M235.253 31.6431V31.5331C235.253 27.8741 234.09 24.8341 231.93 22.6745C229.378 20.1228 225.56 18.7404 220.628 18.7404H207.166C206.604 18.7358 206.048 18.843 205.528 19.0556C205.008 19.2683 204.536 19.5822 204.14 19.9791C203.743 20.376 203.429 20.8479 203.216 21.3674C203.003 21.8868 202.896 22.4434 202.901 23.0046V53.5765C202.901 54.7074 203.35 55.792 204.15 56.5917C204.95 57.3914 206.034 57.8407 207.166 57.8407C208.297 57.8407 209.382 57.3914 210.181 56.5917C210.981 55.792 211.431 54.7074 211.431 53.5765V45.103H218.248L226.558 55.6261C227.027 56.3092 227.655 56.8679 228.389 57.2537C229.123 57.6396 229.939 57.8411 230.768 57.8407C231.293 57.8507 231.814 57.7566 232.302 57.5638C232.79 57.371 233.235 57.0834 233.611 56.7175C233.988 56.3517 234.287 55.9148 234.494 55.4324C234.7 54.9499 234.808 54.4313 234.813 53.9066C234.771 52.6856 234.281 51.5227 233.437 50.6396L227.5 43.4386C232.206 41.499 235.253 37.7369 235.253 31.6431ZM226.613 32.0833C226.613 35.3572 224.233 37.5856 220.078 37.5856H211.431V26.4366H219.913C224.04 26.4366 226.613 28.3212 226.613 31.9733V32.0833Z" fill="url(#paint7_linear_38_121)"/>
<path d="M58.0669 11.1986C59.9036 11.1968 61.7218 11.565 63.4131 12.281C65.1044 12.9971 66.6341 14.0465 67.9109 15.3666C68.4099 15.9545 69.0245 16.4334 69.7166 16.7736C70.4087 17.1138 71.1634 17.308 71.9337 17.344C72.7041 17.38 73.4736 17.2572 74.1944 16.983C74.9152 16.7089 75.5719 16.2894 76.1236 15.7506C76.6752 15.2118 77.1101 14.5653 77.4011 13.8512C77.6921 13.1371 77.833 12.3709 77.815 11.6C77.797 10.8292 77.6206 10.0703 77.2966 9.37055C76.9727 8.67082 76.5081 8.04524 75.9319 7.53274C72.4676 3.98121 68.0232 1.54243 63.1662 0.527709C58.3093 -0.487008 53.26 -0.031621 48.6631 1.83574C44.0662 3.70309 40.1301 6.8977 37.3573 11.0118C34.5845 15.1258 33.1009 19.9727 33.0957 24.9336C33.0957 47.9674 58.0669 76.2695 58.0669 76.2695C60.1655 73.9016 61.3882 70.8855 61.5309 67.725C61.6736 64.5644 60.7277 61.4505 58.8511 58.9031L58.0738 57.8233C57.0419 56.317 56.01 54.7007 54.9163 53.0088C51.9586 48.3725 49.426 43.4785 47.3492 38.3866C45.3268 33.2557 44.3018 28.7576 44.3018 24.9473C44.3027 23.1409 44.6594 21.3524 45.3517 19.6838C46.0439 18.0153 47.0581 16.4994 48.3363 15.2227C49.6145 13.946 51.1317 12.9335 52.8013 12.2431C54.4709 11.5526 56.2601 11.1977 58.0669 11.1986Z" fill="url(#paint8_linear_38_121)"/>
<path d="M66.4518 33.8118C66.4518 33.8118 66.1148 28.2064 58.8848 29.3962C54.4296 30.2887 50.2419 32.2015 46.6505 34.9844C43.059 37.7672 40.1616 41.3445 38.1855 45.4353C40.6132 50.8169 43.4583 56.0002 46.695 60.9379C46.5607 60.027 46.494 59.1074 46.4955 58.1867C46.5088 53.9764 47.9829 49.9011 50.6664 46.6562C53.3498 43.4114 57.0763 41.198 61.2099 40.3939C67.4011 39.2728 66.4518 33.8118 66.4518 33.8118Z" fill="url(#paint9_linear_38_121)"/>
<path d="M13.8889 30.3805C13.1494 30.3746 12.4185 30.539 11.7529 30.861C11.0872 31.1831 10.5046 31.6541 10.0504 32.2375C9.73598 31.6456 9.25855 31.1561 8.67458 30.827C8.09062 30.4979 7.42458 30.343 6.75529 30.3805C6.07208 30.3882 5.4012 30.5635 4.80152 30.8908C4.20183 31.2182 3.69165 31.6877 3.31573 32.2582V32.1275C3.31573 31.6879 3.14107 31.2663 2.83015 30.9554C2.51924 30.6446 2.09756 30.4699 1.65787 30.4699C1.21817 30.4699 0.796488 30.6446 0.485578 30.9554C0.174668 31.2663 0 31.6879 0 32.1275V40.7729C0 41.2125 0.174668 41.6341 0.485578 41.9449C0.796488 42.2558 1.21817 42.4304 1.65787 42.4304C2.09756 42.4304 2.51924 42.2558 2.83015 41.9449C3.14107 41.6341 3.31573 41.2125 3.31573 40.7729V35.7727C3.31573 34.2046 4.07931 33.393 5.32443 33.393C6.56955 33.393 7.27122 34.2046 7.27122 35.7727V40.7729C7.27122 41.2125 7.44589 41.6341 7.7568 41.9449C8.06771 42.2558 8.4894 42.4304 8.92909 42.4304C9.36878 42.4304 9.79047 42.2558 10.1014 41.9449C10.4123 41.6341 10.587 41.2125 10.587 40.7729V35.7727C10.587 34.2046 11.3505 33.393 12.5957 33.393C13.8408 33.393 14.5356 34.2046 14.5356 35.7727V40.7729C14.5356 41.2125 14.7102 41.6341 15.0211 41.9449C15.3321 42.2558 15.7537 42.4304 16.1934 42.4304C16.6331 42.4304 17.0548 42.2558 17.3657 41.9449C17.6766 41.6341 17.8513 41.2125 17.8513 40.7729V34.6791C17.8719 31.8661 16.3585 30.3805 13.8889 30.3805Z" fill="url(#paint10_linear_38_121)"/>
<path d="M28.7755 30.468C28.4078 30.476 28.0528 30.604 27.7646 30.8324C27.4765 31.0609 27.271 31.3774 27.1795 31.7335L24.7512 38.5219L22.2197 31.7129C22.1363 31.3541 21.9323 31.0348 21.6419 30.8083C21.3514 30.5817 20.992 30.4616 20.6237 30.468C20.4099 30.4596 20.1967 30.4948 19.997 30.5715C19.7972 30.6481 19.6152 30.7647 19.462 30.914C19.3088 31.0633 19.1877 31.2422 19.1059 31.4399C19.0241 31.6376 18.9835 31.8498 18.9865 32.0637C19.0041 32.3262 19.0645 32.5841 19.1653 32.8271L23.1552 42.0778L23.0452 42.3391C22.9591 42.5722 22.7947 42.7682 22.5802 42.8936C22.3657 43.0191 22.1142 43.0662 21.8688 43.0269C21.6341 43.0192 21.4021 42.9751 21.1809 42.8962C21.0046 42.8326 20.818 42.8023 20.6306 42.8068C20.4536 42.8085 20.2787 42.8457 20.1164 42.9163C19.954 42.9869 19.8076 43.0894 19.6856 43.2178C19.5637 43.3461 19.4688 43.4976 19.4066 43.6633C19.3444 43.829 19.3162 44.0055 19.3236 44.1824C19.3252 44.494 19.428 44.7966 19.6166 45.0447C19.8052 45.2928 20.0693 45.4729 20.3692 45.5579C20.9489 45.7678 21.5619 45.8704 22.1784 45.8606C24.1665 45.8606 25.1502 44.9664 26.1339 42.5867L30.2132 32.7858C30.3071 32.5348 30.3582 32.2697 30.3645 32.0018C30.3647 31.7956 30.3232 31.5916 30.2427 31.4018C30.1622 31.2121 30.0443 31.0405 29.8959 30.8973C29.7476 30.7542 29.5719 30.6424 29.3794 30.5686C29.1869 30.4948 28.9815 30.4606 28.7755 30.468Z" fill="url(#paint11_linear_38_121)"/>
<path d="M117.937 18.4083C117.384 18.4073 116.836 18.5156 116.325 18.7268C115.814 18.938 115.349 19.248 114.958 19.6391C114.567 20.0301 114.257 20.4945 114.046 21.0056C113.834 21.5167 113.726 22.0645 113.727 22.6175V42.6113L97.2721 21.0149C96.1095 19.5156 94.9195 18.5389 92.8557 18.5389H91.9683C91.4069 18.5344 90.8503 18.6415 90.3307 18.8542C89.8112 19.0669 89.3392 19.3808 88.9422 19.7777C88.5453 20.1746 88.2313 20.6465 88.0186 21.1659C87.8059 21.6853 87.6987 22.2419 87.7033 22.8032V53.6158C87.7033 54.7321 88.1468 55.8027 88.9363 56.5921C89.7259 57.3815 90.7967 57.825 91.9133 57.825C93.0299 57.825 94.1007 57.3815 94.8902 56.5921C95.6797 55.8027 96.1233 54.7321 96.1233 53.6158V32.8585L113.184 55.232C114.332 56.7314 115.557 57.7424 117.621 57.7424H117.896C118.457 57.747 119.014 57.6398 119.533 57.4272C120.053 57.2145 120.525 56.9006 120.922 56.5037C121.319 56.1068 121.633 55.6349 121.845 55.1155C122.058 54.596 122.165 54.0395 122.161 53.4782V22.6175C122.162 22.0633 122.053 21.5144 121.841 21.0024C121.629 20.4904 121.317 20.0254 120.925 19.6342C120.532 19.243 120.066 18.9332 119.553 18.7228C119.041 18.5124 118.491 18.4055 117.937 18.4083Z" fill="url(#paint12_linear_38_121)"/>
<path d="M81.9865 23.5938C81.9865 20.7525 79.6827 18.4492 76.8409 18.4492C73.9991 18.4492 71.6953 20.7525 71.6953 23.5938V52.6869C71.6953 55.5282 73.9991 57.8315 76.8409 57.8315C79.6827 57.8315 81.9865 55.5282 81.9865 52.6869V23.5938Z" fill="url(#paint13_linear_38_121)"/>
<path d="M194.377 49.9175H176.815V41.781H191.605C192.104 41.7856 192.599 41.6916 193.061 41.5044C193.524 41.3173 193.945 41.0407 194.3 40.6906C194.656 40.3404 194.938 39.9235 195.132 39.4639C195.326 39.0042 195.427 38.5108 195.43 38.012C195.428 36.9983 195.025 36.0267 194.308 35.31C193.591 34.5932 192.619 34.1897 191.605 34.1879H176.815V26.3266H194.095C194.594 26.3311 195.089 26.2371 195.552 26.05C196.014 25.8629 196.435 25.5863 196.791 25.2361C197.146 24.886 197.429 24.4691 197.622 24.0094C197.816 23.5498 197.917 23.0564 197.92 22.5576C197.917 21.5451 197.512 20.5753 196.795 19.86C196.079 19.1447 195.108 18.7422 194.095 18.7404H172.605C172.044 18.7358 171.487 18.843 170.967 19.0556C170.448 19.2683 169.976 19.5822 169.579 19.9791C169.182 20.376 168.868 20.8479 168.655 21.3674C168.443 21.8868 168.335 22.4434 168.34 23.0046V53.267C168.335 53.8282 168.443 54.3848 168.655 54.9042C168.868 55.4237 169.182 55.8956 169.579 56.2924C169.976 56.6893 170.448 57.0033 170.967 57.2159C171.487 57.4286 172.044 57.5358 172.605 57.5312H194.377C194.876 57.5367 195.37 57.4435 195.832 57.257C196.294 57.0706 196.715 56.7945 197.07 56.4448C197.425 56.0951 197.707 55.6786 197.9 55.2194C198.093 54.7602 198.194 54.2672 198.195 53.769C198.198 53.2654 198.101 52.7661 197.911 52.2998C197.72 51.8336 197.44 51.4094 197.085 51.0517C196.731 50.6939 196.309 50.4096 195.844 50.215C195.38 50.0204 194.881 49.9193 194.377 49.9175Z" fill="url(#paint14_linear_38_121)"/>
<path d="M143.023 18.7404H132.168C131.606 18.7358 131.049 18.843 130.53 19.0556C130.01 19.2683 129.538 19.5822 129.141 19.9791C128.745 20.376 128.431 20.8479 128.218 21.3674C128.005 21.8868 127.898 22.4434 127.902 23.0046V53.267C127.898 53.8282 128.005 54.3848 128.218 54.9042C128.431 55.4237 128.745 55.8956 129.141 56.2925C129.538 56.6893 130.01 57.0033 130.53 57.2159C131.049 57.4286 131.606 57.5358 132.168 57.5312H143.023C155.213 57.5312 163.66 49.0577 163.66 38.1495V38.0395C163.633 27.1038 155.213 18.7404 143.023 18.7404ZM154.717 38.2321C154.717 45.1099 150.012 49.8074 143.023 49.8074H136.433V26.4229H143.023C150.005 26.4229 154.717 31.2373 154.717 38.1152V38.2321Z" fill="url(#paint15_linear_38_121)"/>
<path d="M235.253 31.6431V31.5331C235.253 27.8741 234.09 24.8341 231.93 22.6745C229.378 20.1228 225.56 18.7404 220.628 18.7404H207.166C206.604 18.7358 206.048 18.843 205.528 19.0556C205.008 19.2683 204.536 19.5822 204.14 19.9791C203.743 20.376 203.429 20.8479 203.216 21.3674C203.003 21.8868 202.896 22.4434 202.901 23.0046V53.5765C202.901 54.7074 203.35 55.792 204.15 56.5917C204.95 57.3914 206.034 57.8407 207.166 57.8407C208.297 57.8407 209.382 57.3914 210.181 56.5917C210.981 55.792 211.431 54.7074 211.431 53.5765V45.103H218.248L226.558 55.6261C227.027 56.3092 227.655 56.8679 228.389 57.2537C229.123 57.6396 229.939 57.8411 230.768 57.8407C231.293 57.8507 231.814 57.7566 232.302 57.5638C232.79 57.371 233.235 57.0834 233.611 56.7175C233.988 56.3517 234.287 55.9148 234.494 55.4324C234.7 54.9499 234.808 54.4313 234.813 53.9066C234.771 52.6856 234.281 51.5227 233.437 50.6396L227.5 43.4386C232.206 41.499 235.253 37.7369 235.253 31.6431ZM226.613 32.0833C226.613 35.3572 224.233 37.5856 220.078 37.5856H211.431V26.4366H219.913C224.04 26.4366 226.613 28.3212 226.613 31.9733V32.0833Z" fill="url(#paint16_linear_38_121)"/>
<path d="M58.0669 11.1986C59.9036 11.1968 61.7218 11.565 63.4131 12.281C65.1044 12.9971 66.6341 14.0465 67.9109 15.3666C68.4099 15.9545 69.0245 16.4334 69.7166 16.7736C70.4087 17.1138 71.1634 17.308 71.9337 17.344C72.7041 17.38 73.4736 17.2572 74.1944 16.983C74.9152 16.7089 75.5719 16.2894 76.1236 15.7506C76.6752 15.2118 77.1101 14.5653 77.4011 13.8512C77.6921 13.1371 77.833 12.3709 77.815 11.6C77.797 10.8292 77.6206 10.0703 77.2966 9.37055C76.9727 8.67082 76.5081 8.04524 75.9319 7.53274C72.4676 3.98121 68.0232 1.54243 63.1662 0.527709C58.3093 -0.487008 53.26 -0.031621 48.6631 1.83574C44.0662 3.70309 40.1301 6.8977 37.3573 11.0118C34.5845 15.1258 33.1009 19.9727 33.0957 24.9336C33.0957 47.9674 58.0669 76.2695 58.0669 76.2695C60.1655 73.9016 61.3882 70.8855 61.5309 67.725C61.6736 64.5644 60.7277 61.4505 58.8511 58.9031L58.0738 57.8233C57.0419 56.317 56.01 54.7007 54.9163 53.0088C51.9586 48.3725 49.426 43.4785 47.3492 38.3866C45.3268 33.2557 44.3018 28.7576 44.3018 24.9473C44.3027 23.1409 44.6594 21.3524 45.3517 19.6838C46.0439 18.0153 47.0581 16.4994 48.3363 15.2227C49.6145 13.946 51.1317 12.9335 52.8013 12.2431C54.4709 11.5526 56.2601 11.1977 58.0669 11.1986Z" fill="url(#paint17_linear_38_121)"/>
<path d="M66.4518 33.8118C66.4518 33.8118 66.1148 28.2064 58.8848 29.3962C54.4296 30.2887 50.2419 32.2015 46.6505 34.9844C43.059 37.7672 40.1616 41.3445 38.1855 45.4353C40.6132 50.8169 43.4583 56.0002 46.695 60.9379C46.5607 60.027 46.494 59.1074 46.4955 58.1867C46.5088 53.9764 47.9829 49.9011 50.6664 46.6562C53.3498 43.4114 57.0763 41.198 61.2099 40.3939C67.4011 39.2728 66.4518 33.8118 66.4518 33.8118Z" fill="url(#paint18_linear_38_121)"/>
<path d="M261.999 42.34H256.439L255.519 45H252.579L257.599 31.02H260.859L265.879 45H262.919L261.999 42.34ZM261.239 40.1L259.219 34.26L257.199 40.1H261.239ZM270.555 31.04V45H267.755V31.04H270.555Z" fill="white"/>
<circle cx="246.5" cy="54.5" r="4.5" fill="black" stroke="white" stroke-width="2"/>
<defs>
<linearGradient id="paint0_linear_38_121" x1="0" y1="19.0004" x2="37.9945" y2="19.0004" gradientUnits="userSpaceOnUse">
<stop stop-color="#FE8A70"/>
<stop offset="1" stop-color="#F800C0"/>
</linearGradient>
<linearGradient id="paint1_linear_38_121" x1="4.5127" y1="35.924" x2="235.498" y2="68.9223" gradientUnits="userSpaceOnUse">
<stop stop-color="#4B4CFF"/>
<stop offset="1" stop-color="#003DCA"/>
</linearGradient>
<linearGradient id="paint2_linear_38_121" x1="4.61601" y1="35.2068" x2="235.601" y2="68.2119" gradientUnits="userSpaceOnUse">
<stop stop-color="#4B4CFF"/>
<stop offset="1" stop-color="#003DCA"/>
</linearGradient>
<linearGradient id="paint3_linear_38_121" x1="6.21328" y1="24.0205" x2="237.198" y2="57.0257" gradientUnits="userSpaceOnUse">
<stop stop-color="#4B4CFF"/>
<stop offset="1" stop-color="#003DCA"/>
</linearGradient>
<linearGradient id="paint4_linear_38_121" x1="5.64895" y1="27.975" x2="236.634" y2="60.9801" gradientUnits="userSpaceOnUse">
<stop stop-color="#4B4CFF"/>
<stop offset="1" stop-color="#003DCA"/>
</linearGradient>
<linearGradient id="paint5_linear_38_121" x1="7.78144" y1="13.0524" x2="238.767" y2="46.0507" gradientUnits="userSpaceOnUse">
<stop stop-color="#4B4CFF"/>
<stop offset="0.5" stop-color="#1040D5"/>
<stop offset="1" stop-color="#003DCA"/>
</linearGradient>
<linearGradient id="paint6_linear_38_121" x1="6.87822" y1="19.3456" x2="237.863" y2="52.3508" gradientUnits="userSpaceOnUse">
<stop stop-color="#4B4CFF"/>
<stop offset="1" stop-color="#003DCA"/>
</linearGradient>
<linearGradient id="paint7_linear_38_121" x1="8.3867" y1="8.83633" x2="239.372" y2="41.8415" gradientUnits="userSpaceOnUse">
<stop stop-color="#4B4CFF"/>
<stop offset="1" stop-color="#003DCA"/>
</linearGradient>
<linearGradient id="paint8_linear_38_121" x1="5.29721" y1="30.4565" x2="236.275" y2="63.4547" gradientUnits="userSpaceOnUse">
<stop stop-color="#4B4CFF"/>
<stop offset="1" stop-color="#003DCA"/>
</linearGradient>
<linearGradient id="paint9_linear_38_121" x1="38.1855" y1="45.0845" x2="66.5" y2="45.0845" gradientUnits="userSpaceOnUse">
<stop stop-color="#FE8A70"/>
<stop offset="1" stop-color="#F800C0"/>
</linearGradient>
<linearGradient id="paint10_linear_38_121" x1="4.5127" y1="35.924" x2="235.498" y2="68.9223" gradientUnits="userSpaceOnUse">
<stop stop-color="#4B4CFF"/>
<stop offset="1" stop-color="#003DCA"/>
</linearGradient>
<linearGradient id="paint11_linear_38_121" x1="4.61601" y1="35.2068" x2="235.601" y2="68.2119" gradientUnits="userSpaceOnUse">
<stop stop-color="#4B4CFF"/>
<stop offset="1" stop-color="#003DCA"/>
</linearGradient>
<linearGradient id="paint12_linear_38_121" x1="6.21328" y1="24.0205" x2="237.198" y2="57.0257" gradientUnits="userSpaceOnUse">
<stop stop-color="#4B4CFF"/>
<stop offset="1" stop-color="#003DCA"/>
</linearGradient>
<linearGradient id="paint13_linear_38_121" x1="5.64895" y1="27.975" x2="236.634" y2="60.9801" gradientUnits="userSpaceOnUse">
<stop stop-color="#4B4CFF"/>
<stop offset="1" stop-color="#003DCA"/>
</linearGradient>
<linearGradient id="paint14_linear_38_121" x1="7.78144" y1="13.0524" x2="238.767" y2="46.0507" gradientUnits="userSpaceOnUse">
<stop stop-color="#4B4CFF"/>
<stop offset="0.5" stop-color="#1040D5"/>
<stop offset="1" stop-color="#003DCA"/>
</linearGradient>
<linearGradient id="paint15_linear_38_121" x1="6.87822" y1="19.3456" x2="237.863" y2="52.3508" gradientUnits="userSpaceOnUse">
<stop stop-color="#4B4CFF"/>
<stop offset="1" stop-color="#003DCA"/>
</linearGradient>
<linearGradient id="paint16_linear_38_121" x1="8.3867" y1="8.83633" x2="239.372" y2="41.8415" gradientUnits="userSpaceOnUse">
<stop stop-color="#4B4CFF"/>
<stop offset="1" stop-color="#003DCA"/>
</linearGradient>
<linearGradient id="paint17_linear_38_121" x1="5.29721" y1="30.4565" x2="236.275" y2="63.4547" gradientUnits="userSpaceOnUse">
<stop stop-color="#4B4CFF"/>
<stop offset="1" stop-color="#003DCA"/>
</linearGradient>
<linearGradient id="paint18_linear_38_121" x1="38.1855" y1="45.0845" x2="66.5" y2="45.0845" gradientUnits="userSpaceOnUse">
<stop stop-color="#FE8A70"/>
<stop offset="1" stop-color="#F800C0"/>
</linearGradient>
</defs>
</svg>
