<svg width="28" height="32" viewBox="0 0 28 32" fill="none" xmlns="http://www.w3.org/2000/svg">
<g id="Vector">
<path d="M5.23379 28.6489C5.23379 25.5452 6.40566 22.6285 8.53355 20.436C12.5783 16.2684 15.2274 10.7697 15.2274 4.78021V4.40337H11.4798V4.78021C11.4798 10.7697 8.83067 16.2684 4.78595 20.436C2.65807 22.6285 1.4862 25.5452 1.4862 28.6489C1.4862 29.3601 2.04659 29.9386 2.7354 29.9386H6.48299C5.79418 29.9386 5.23379 29.3601 5.23379 28.6489Z" fill="#F800C0"/>
<path d="M13.8531 22.2019C14.8775 22.4148 15.9573 23.0182 16.7736 23.7349C18.1725 24.9632 18.9748 26.7542 18.9748 28.6487C18.9748 29.3598 19.5352 29.9384 20.224 29.9384H23.9716C23.2828 29.9384 22.7224 29.3598 22.7224 28.6487C22.7224 25.2 20.0369 22.2019 16.4644 22.2019H13.8531Z" fill="#F800C0"/>
<path d="M3.78182 32H6.30303C8.17308 32 9.73049 30.6471 10.0321 28.8765C10.0664 28.7628 10.0848 28.6423 10.0848 28.5174C10.0848 26.5454 11.4336 24.8407 13.2221 24.5522C15.6381 24.1628 17.6485 26.0041 17.6485 28.25C17.6485 30.3178 19.345 32 21.4303 32H23.9515C26.0368 32 27.7333 30.3178 27.7333 28.25C27.7333 25.0181 26.6162 21.9574 24.5635 19.5H26.4727C27.169 19.5 27.7333 18.9404 27.7333 18.25C27.7333 17.5596 27.169 17 26.4727 17H22.2588C20.94 15.4367 19.8879 13.7533 19.1231 12H21.4303C22.1265 12 22.6909 11.4404 22.6909 10.75C22.6909 10.0596 22.1265 9.5 21.4303 9.5H18.2412C17.8504 8.0595 17.6485 6.58956 17.6485 5.11525V3.5C17.6485 2.80963 17.0841 2.25 16.3879 2.25H15.1273V1.25C15.1273 0.559625 14.5629 0 13.8667 0C13.1704 0 12.6061 0.559625 12.6061 1.25V2.25H11.3455C10.6492 2.25 10.0848 2.80963 10.0848 3.5V5.11525C10.0848 6.58956 9.8829 8.0595 9.49224 9.5H6.30303C5.6068 9.5 5.04242 10.0596 5.04242 10.75C5.04242 11.4404 5.6068 12 6.30303 12H8.61025C7.84544 13.7533 6.79341 15.4367 5.47462 17H1.26061C0.564373 17 0 17.5596 0 18.25C0 18.9404 0.564373 19.5 1.26061 19.5H3.16986C1.11715 21.9574 0 25.0181 0 28.25C0 30.3178 1.69652 32 3.78182 32ZM5.8511 20.2896C9.93276 16.2502 12.6061 10.9206 12.6061 5.11525V4.75H15.1273V5.11525C15.1273 10.9244 17.8038 16.2533 21.8822 20.2896C24.0295 22.4147 25.2121 25.2418 25.2121 28.25C25.2121 28.9393 24.6466 29.5 23.9515 29.5H21.4303C20.7352 29.5 20.1697 28.9393 20.1697 28.25C20.1697 26.4137 19.3601 24.6778 17.9483 23.4873C16.5288 22.2902 14.6558 21.788 12.8173 22.0847C9.9286 22.5507 7.79029 25.0821 7.58034 28.0461C7.56937 28.1124 7.56364 28.1806 7.56364 28.25C7.56364 28.9393 6.99813 29.5 6.30303 29.5H3.78182C3.08672 29.5 2.52121 28.9393 2.52121 28.25C2.52121 25.2418 3.70379 22.4147 5.8511 20.2896Z" fill="#003DCA"/>
<path d="M11.4196 17.6842C11.4196 18.1493 11.9054 18.5263 12.5046 18.5263H15.2287C15.828 18.5263 16.3137 18.1493 16.3137 17.6842C16.3137 17.2191 15.828 16.8421 15.2287 16.8421H12.5046C11.9054 16.8421 11.4196 17.2191 11.4196 17.6842Z" fill="#F800C0"/>
</g>
</svg>
