<svg width="33" height="39" viewBox="0 0 33 39" fill="none" xmlns="http://www.w3.org/2000/svg">
<g id="Group 1000004280">
<g id="Group 1000004044">
<path id="Vector" d="M7.51807 26.5206C7.51807 25.5238 8.08044 24.6585 8.9052 24.2245C9.6901 23.8116 10.1108 22.9293 10.1108 22.0423V16.668C10.1108 13.0436 12.5897 9.99819 15.9446 9.13473C15.323 8.97476 14.6715 8.88965 14 8.88965C9.70416 8.88965 6.22168 12.3721 6.22168 16.668V22.0423C6.22168 22.9292 5.80094 23.8116 5.01604 24.2245C4.19128 24.6585 3.62891 25.5238 3.62891 26.5206C3.62891 27.9524 4.78969 29.1133 6.22168 29.1133H10.1108C8.67879 29.1133 7.51807 27.9524 7.51807 26.5206Z" fill="#CEE1F2"/>
<path id="Vector_2" d="M16.5952 33.002C15.8792 33.002 15.2988 33.5823 15.2988 34.2983C15.2988 35.0132 14.7173 35.5947 14.0024 35.5947C13.2876 35.5947 12.7061 35.0132 12.7061 34.2983C12.7061 33.5823 12.1257 33.002 11.4097 33.002C10.6937 33.002 10.1133 33.5823 10.1133 34.2983C10.1133 36.4428 11.858 38.1875 14.0024 38.1875C16.1469 38.1875 17.8916 36.4428 17.8916 34.2983C17.8916 33.5823 17.3111 33.002 16.5952 33.002Z" fill="#F800C0"/>
<g id="Group">
<path id="Vector_3" d="M1.03775 15.3451C1.73462 15.4872 2.42307 15.0396 2.5669 14.3337C3.13562 11.5435 4.71313 9.05728 7.00877 7.33302C7.58126 6.90301 7.69677 6.09037 7.26675 5.51788C6.83674 4.94546 6.0241 4.82989 5.45168 5.2599C2.64864 7.3653 0.721882 10.4039 0.0263711 13.8159C-0.11662 14.5175 0.336207 15.2021 1.03775 15.3451Z" fill="#0023C4"/>
<path id="Vector_4" d="M12.7031 7.68579C8.31129 8.31681 4.9248 12.1038 4.9248 16.6675V22.0418C4.9248 22.4995 4.71868 22.9153 4.41195 23.0767C3.12898 23.7518 2.33203 25.0712 2.33203 26.5201C2.33203 28.6646 4.07671 30.4092 6.22119 30.4092H21.7778C23.9223 30.4092 25.667 28.6646 25.667 26.5201C25.667 25.0712 24.87 23.7518 23.5871 23.0768C23.2803 22.9154 23.0742 22.4995 23.0742 22.0419V16.6675C23.0742 12.1039 19.6877 8.31681 15.2959 7.68585V6.29639C15.2959 5.58039 14.7155 5 13.9995 5C13.2835 5 12.7031 5.58039 12.7031 6.29639V7.68579ZM20.4814 16.6675V22.0418C20.4814 23.4794 21.2088 24.7552 22.3798 25.3713C22.8081 25.5967 23.0742 26.0369 23.0742 26.52C23.0742 27.2348 22.4927 27.8164 21.7778 27.8164H6.22119C5.50636 27.8164 4.9248 27.2348 4.9248 26.52C4.9248 26.0368 5.19082 25.5966 5.61921 25.3712C6.79017 24.7551 7.51758 23.4793 7.51758 22.0418V16.6674C7.51758 13.0933 10.4253 10.1855 13.9995 10.1855C17.5737 10.1855 20.4814 13.0933 20.4814 16.6675Z" fill="#0023C4"/>
</g>
</g>
<circle id="Ellipse 872" cx="27" cy="6" r="6" fill="#0023C4"/>
</g>
</svg>
