<svg width="32" height="28" viewBox="0 0 32 28" fill="none" xmlns="http://www.w3.org/2000/svg">
<path d="M5 18.75V16.25C5 13.4886 7.23856 11.25 10 11.25H6.25C3.48856 11.25 1.25 13.4886 1.25 16.25V18.75C1.25 20.1307 2.36931 21.25 3.75 21.25H7.5C6.11931 21.25 5 20.1307 5 18.75Z" fill="#CEE1F2"/>
<path d="M25.75 10H7.95738L10.0579 3.3715C10.2231 2.85025 10.7022 2.5 11.25 2.5H20.75C21.2978 2.5 21.7769 2.85025 21.942 3.37156L22.9739 6.62763C23.1385 7.14706 23.6206 7.5 24.1654 7.5H28.25C28.9404 7.5 29.5 6.94037 29.5 6.25C29.5 5.55963 28.9404 5 28.25 5H25.0806L24.3252 2.61637C23.8294 1.05144 22.3926 0 20.7499 0H11.25C9.60738 0 8.17056 1.05144 7.67481 2.61631L6.91937 5H3.75C3.05963 5 2.5 5.55963 2.5 6.25C2.5 6.94037 3.05963 7.5 3.75 7.5H6.12712L5.31256 10.0703C2.30944 10.5239 0 13.1223 0 16.25V18.75C0 20.3796 1.04513 21.7689 2.5 22.285V23.75C2.5 25.8177 4.18225 27.5 6.25 27.5C8.31775 27.5 10 25.8177 10 23.75V22.5H22V23.75C22 25.8177 23.6823 27.5 25.75 27.5C27.8177 27.5 29.5 25.8177 29.5 23.75V22.285C30.9549 21.769 32 20.3796 32 18.75V16.25C32 12.8038 29.1963 10 25.75 10ZM7.5 23.75C7.5 24.4393 6.93925 25 6.25 25C5.56075 25 5 24.4393 5 23.75V22.5H7.5V23.75ZM19.5 20H12.5V18.75C12.5 18.0607 13.0608 17.5 13.75 17.5H18.25C18.9393 17.5 19.5 18.0607 19.5 18.75V20ZM25.75 25C25.0607 25 24.5 24.4393 24.5 23.75V22.5H27V23.75C27 24.4393 26.4393 25 25.75 25ZM29.5 18.75C29.5 19.4393 28.9393 20 28.25 20H22V18.75C22 16.6823 20.3177 15 18.25 15H13.75C11.6823 15 10 16.6823 10 18.75V20H3.75C3.06075 20 2.5 19.4393 2.5 18.75V16.25C2.5 14.1839 4.1795 12.5029 6.24487 12.5001C6.24669 12.5001 6.2485 12.5003 6.25031 12.5003C6.25312 12.5003 6.25588 12.5 6.25875 12.5H25.75C27.8177 12.5 29.5 14.1823 29.5 16.25V18.75Z" fill="#003DCA"/>
<path d="M6.25 17.5C6.94036 17.5 7.5 16.9404 7.5 16.25C7.5 15.5596 6.94036 15 6.25 15C5.55964 15 5 15.5596 5 16.25C5 16.9404 5.55964 17.5 6.25 17.5Z" fill="#F800C0"/>
<path d="M25.75 17.5C26.4404 17.5 27 16.9404 27 16.25C27 15.5596 26.4404 15 25.75 15C25.0596 15 24.5 15.5596 24.5 16.25C24.5 16.9404 25.0596 17.5 25.75 17.5Z" fill="#F800C0"/>
</svg>
