<svg width="32" height="28" viewBox="0 0 32 28" fill="none" xmlns="http://www.w3.org/2000/svg">
<g id="Group 1000004273">
<g id="Layout">
<g id="Group">
<path id="Vector" d="M5 4V24C5 25.3807 6.11931 26.5 7.5 26.5H3.75C2.36931 26.5 1.25 25.3807 1.25 24V4C1.25 2.61925 2.36931 1.5 3.75 1.5H7.5C6.11931 1.5 5 2.61925 5 4Z" fill="#CEE1F2"/>
</g>
<g id="Group_2">
<path id="Vector_2" d="M11 0.25H3.75C1.68225 0.25 0 1.93225 0 4V24C0 26.0677 1.68225 27.75 3.75 27.75H11C13.0677 27.75 14.75 26.0677 14.75 24V4C14.75 1.93225 13.0677 0.25 11 0.25ZM3.75 25.25C3.06075 25.25 2.5 24.6892 2.5 24V4C2.5 3.31075 3.06075 2.75 3.75 2.75H11C11.6892 2.75 12.25 3.31075 12.25 4V24C12.25 24.6892 11.6892 25.25 11 25.25H3.75Z" fill="#003DCA"/>
</g>
<g id="Group_3">
<path id="Vector_3" d="M28.25 15.25H21C18.9323 15.25 17.25 16.9323 17.25 19V24C17.25 26.0677 18.9323 27.75 21 27.75H28.25C30.3177 27.75 32 26.0677 32 24V19C32 16.9323 30.3177 15.25 28.25 15.25ZM21 25.25C20.3108 25.25 19.75 24.6892 19.75 24V19C19.75 18.3108 20.3108 17.75 21 17.75H28.25C28.9392 17.75 29.5 18.3108 29.5 19V24C29.5 24.6892 28.9392 25.25 28.25 25.25H21Z" fill="#003DCA"/>
</g>
<g id="Group_4">
<path id="Vector_4" d="M28.25 0.25H21C18.9323 0.25 17.25 1.93225 17.25 4V9C17.25 11.0677 18.9323 12.75 21 12.75H28.25C30.3177 12.75 32 11.0677 32 9V4C32 1.93225 30.3177 0.25 28.25 0.25ZM21 10.25C20.3108 10.25 19.75 9.68925 19.75 9V4C19.75 3.31075 20.3108 2.75 21 2.75H28.25C28.9392 2.75 29.5 3.31075 29.5 4V9C29.5 9.68925 28.9392 10.25 28.25 10.25H21Z" fill="#F800C0"/>
</g>
</g>
</g>
</svg>
