<svg width="32" height="31" viewBox="0 0 32 31" fill="none" xmlns="http://www.w3.org/2000/svg">
<path d="M9.75 1.6084H6C4.61931 1.6084 3.5 2.7165 3.5 4.08336V28.833H7.25V4.08336C7.25 2.71644 8.36931 1.6084 9.75 1.6084Z" fill="#CEE1F2"/>
<path d="M8.5 10.2695C7.80963 10.2695 7.25 10.8236 7.25 11.507V16.4569C7.25 17.1404 7.80963 17.6944 8.5 17.6944C9.19037 17.6944 9.75 17.1404 9.75 16.4569V11.507C9.75 10.8236 9.19037 10.2695 8.5 10.2695Z" fill="#F800C0"/>
<path d="M30.75 27.5951H29.0475C29.3767 26.9739 29.5329 26.2546 29.4571 25.506L27.961 10.7303C27.8921 10.0502 27.2798 9.55427 26.5925 9.62233C25.9056 9.69052 25.4046 10.297 25.4734 10.9771L26.9695 25.7528C27.0382 26.4317 26.5362 27.0395 25.8504 27.1075L20.9375 27.5951C19.6437 27.5951 19.5232 26.6542 19.5069 26.4934L17.6369 8.02369L26.3433 7.15975C27.0301 7.09156 27.5312 6.48507 27.4623 5.80501L27.213 3.34236C27.0068 1.30553 25.1647 -0.185325 23.1076 0.0186739L18.1325 0.512367C16.0751 0.716552 14.569 2.5398 14.7753 4.57657L17.0193 26.7402C17.0492 27.0354 17.114 27.3217 17.21 27.595H14.535C14.6737 27.2077 14.75 26.7913 14.75 26.3575V4.08287C14.75 2.03583 13.0677 0.370428 11 0.370428H6C3.93225 0.370428 2.25 2.03583 2.25 4.08287V26.3575C2.25 26.7913 2.32625 27.2077 2.465 27.595H1.25C0.559625 27.595 0 28.149 0 28.8325C0 29.516 0.559625 30.07 1.25 30.07H30.75C31.4404 30.07 32 29.516 32 28.8325C32 28.149 31.4404 27.5951 30.75 27.5951ZM18.3819 2.97502L23.4825 2.47507C24.1162 2.47507 24.6609 2.952 24.7254 3.58918L24.8501 4.82054L17.3874 5.56104L17.2628 4.32975C17.1941 3.65081 17.6961 3.04308 18.3819 2.97502ZM6 2.84545H11C11.6892 2.84545 12.25 3.40059 12.25 4.08293V5.32042H4.75V4.08293C4.75 3.40059 5.31075 2.84545 6 2.84545ZM6 27.5951C5.31075 27.5951 4.75 27.0399 4.75 26.3576V7.79538H12.25V26.3576C12.25 27.0399 11.6892 27.5951 11 27.5951H6Z" fill="#003DCA"/>
<path d="M21.6156 10.1156C20.9288 10.1838 20.4277 10.7903 20.4966 11.4704L20.9953 16.3956C21.0599 17.0338 21.6033 17.5098 22.2375 17.5098C22.2792 17.5098 22.3214 17.5078 22.3638 17.5036C23.0506 17.4354 23.5517 16.8288 23.4828 16.1488L22.9841 11.2235C22.9152 10.5435 22.3027 10.0476 21.6156 10.1156Z" fill="#F800C0"/>
</svg>
