<svg width="70" height="70" viewBox="0 0 70 70" fill="none" xmlns="http://www.w3.org/2000/svg">
<g filter="url(#filter0_d_75_16602)">
<circle cx="34.6699" cy="30.6699" r="20.6699" fill="white"/>
<circle cx="34.6699" cy="30.6699" r="20.1699" stroke="#E6E6E6"/>
</g>
<path fill-rule="evenodd" clip-rule="evenodd" d="M34.4999 39.05C34.4999 38.5253 34.9252 38.1 35.4499 38.1H43.0498C43.5745 38.1 43.9998 38.5253 43.9998 39.05C43.9998 39.5747 43.5745 40 43.0498 40H35.4499C34.9252 40 34.4999 39.5747 34.4999 39.05Z" fill="#323B63"/>
<path fill-rule="evenodd" clip-rule="evenodd" d="M42.8348 26.7949C44.3641 25.2596 44.2991 23.2434 43.1572 22.0087C42.6003 21.4067 41.8078 21.0221 40.9102 21.0009C40.0092 20.9796 39.0757 21.3242 38.2144 22.0449C38.1923 22.0633 38.1712 22.0827 38.1509 22.1031L25.8307 34.4725C25.2987 35.0066 25 35.7298 25 36.4838V38.0926C25 39.139 25.8474 40 26.9036 40H28.4985C29.2563 40 29.9829 39.6982 30.5177 39.1612L42.8348 26.7949ZM39.4466 24.6033C39.0756 24.2323 38.4741 24.2323 38.1031 24.6033C37.7322 24.9743 37.7322 25.5758 38.1031 25.9468L39.0531 26.8968C39.4241 27.2678 40.0256 27.2678 40.3966 26.8968C40.7676 26.5258 40.7676 25.9243 40.3966 25.5533L39.4466 24.6033Z" fill="#323B63"/>
<defs>
<filter id="filter0_d_75_16602" x="0" y="0" width="69.3398" height="69.3398" filterUnits="userSpaceOnUse" color-interpolation-filters="sRGB">
<feFlood flood-opacity="0" result="BackgroundImageFix"/>
<feColorMatrix in="SourceAlpha" type="matrix" values="0 0 0 0 0 0 0 0 0 0 0 0 0 0 0 0 0 0 127 0" result="hardAlpha"/>
<feOffset dy="4"/>
<feGaussianBlur stdDeviation="7"/>
<feComposite in2="hardAlpha" operator="out"/>
<feColorMatrix type="matrix" values="0 0 0 0 0 0 0 0 0 0 0 0 0 0 0 0 0 0 0.04 0"/>
<feBlend mode="normal" in2="BackgroundImageFix" result="effect1_dropShadow_75_16602"/>
<feBlend mode="normal" in="SourceGraphic" in2="effect1_dropShadow_75_16602" result="shape"/>
</filter>
</defs>
</svg>
