<svg width="33" height="33" viewBox="0 0 33 33" fill="none" xmlns="http://www.w3.org/2000/svg">
<g id="Group">
<path id="Vector" d="M5.14555 25.1869V16.8244C5.14555 13.2716 8.06615 10.3916 11.6188 10.3916H7.88783C4.33509 10.3916 1.45508 13.2716 1.45508 16.8244V25.1869C1.45508 28.7396 4.33509 31.6197 7.88783 31.6197H11.6188C8.06615 31.6197 5.14555 28.7397 5.14555 25.1869Z" fill="#C6E1F2"/>
<path id="Vector_2" d="M25.2164 32.9353H7.7193C3.46288 32.9353 0 29.4725 0 25.216V17.0465C0 12.79 3.46288 9.32715 7.7193 9.32715H13.8947C14.6053 9.32715 15.1813 9.90314 15.1813 10.6137C15.1813 11.3243 14.6053 11.9002 13.8947 11.9002H7.7193C4.88169 11.9002 2.5731 14.2088 2.5731 17.0465V25.216C2.5731 28.0537 4.88169 30.3622 7.7193 30.3622H25.2164C28.054 30.3622 30.3626 28.0537 30.3626 25.216V17.4967C30.3626 16.7862 30.9386 16.2102 31.6491 16.2102C32.3597 16.2102 32.9357 16.7862 32.9357 17.4967V25.216C32.9357 29.4725 29.4728 32.9353 25.2164 32.9353ZM26.5029 26.5026C26.5029 25.792 25.927 25.216 25.2164 25.216H8.10527C7.39471 25.216 6.81872 25.792 6.81872 26.5026C6.81872 27.2132 7.39471 27.7891 8.10527 27.7891H25.2164C25.927 27.7891 26.5029 27.2132 26.5029 26.5026ZM8.42691 14.4734C7.53874 14.4734 6.81872 15.1934 6.81872 16.0815C6.81872 16.9697 7.53874 17.6897 8.42691 17.6897C9.31508 17.6897 10.0351 16.9697 10.0351 16.0815C10.0351 15.1934 9.31508 14.4734 8.42691 14.4734ZM13.9591 14.4734C13.0709 14.4734 12.3509 15.1934 12.3509 16.0815C12.3509 16.9697 13.0709 17.6897 13.9591 17.6897C14.8472 17.6897 15.5673 16.9697 15.5673 16.0815C15.5673 15.1934 14.8472 14.4734 13.9591 14.4734ZM8.42691 20.0055C7.53874 20.0055 6.81872 20.7255 6.81872 21.6137C6.81872 22.5019 7.53874 23.2219 8.42691 23.2219C9.31508 23.2219 10.0351 22.5019 10.0351 21.6137C10.0351 20.7255 9.31508 20.0055 8.42691 20.0055ZM13.9591 20.0055C13.0709 20.0055 12.3509 20.7255 12.3509 21.6137C12.3509 22.5019 13.0709 23.2219 13.9591 23.2219C14.8472 23.2219 15.5673 22.5019 15.5673 21.6137C15.5673 20.7255 14.8472 20.0055 13.9591 20.0055ZM19.4912 20.0055C18.6031 20.0055 17.8831 20.7255 17.8831 21.6137C17.8831 22.5019 18.6031 23.2219 19.4912 23.2219C20.3794 23.2219 21.0994 22.5019 21.0994 21.6137C21.0994 20.7255 20.3794 20.0055 19.4912 20.0055ZM24.8948 20.0055C24.0066 20.0055 23.2866 20.7255 23.2866 21.6137C23.2866 22.5019 24.0066 23.2219 24.8948 23.2219C25.7829 23.2219 26.5029 22.5019 26.5029 21.6137C26.5029 20.7255 25.7829 20.0055 24.8948 20.0055Z" fill="#003DCA"/>
<path id="Vector_3" d="M18.7845 15.503C18.6559 15.503 18.526 15.4837 18.3987 15.4437C17.8627 15.2751 17.498 14.7782 17.498 14.2163L17.4984 7.82081C17.4801 5.74445 18.2787 3.78471 19.7473 2.3019C21.2175 0.817474 23.1715 0 25.2495 0C27.3414 0 29.2982 0.812457 30.7594 2.28768C32.2247 3.76721 33.0207 5.73454 33.0006 7.82731C32.9808 9.88952 32.1607 11.8216 30.6915 13.2676C29.2269 14.7092 27.2852 15.5029 25.2238 15.5029C25.2215 15.5029 25.2191 15.5029 25.2169 15.5029C24.0645 15.5029 22.9051 15.2168 21.7716 14.6525C21.5245 14.5295 21.2585 14.4734 20.995 14.4734C20.0711 14.4734 19.4922 15.503 18.7845 15.503ZM25.22 12.9298H25.2226C28.0665 12.93 30.4005 10.6304 30.4277 7.80261C30.4411 6.40175 29.9097 5.08625 28.9312 4.09837C27.957 3.1148 26.6495 2.5731 25.2495 2.5731C23.8635 2.5731 22.5587 3.11982 21.5754 4.11259C20.5922 5.10529 20.0581 6.41577 20.0714 7.80261C20.0714 7.80672 20.0713 12.004 20.0713 12.004C21.0097 11.793 22.0144 11.8989 22.9184 12.349C23.6925 12.7344 24.4663 12.9298 25.2181 12.9298H25.22Z" fill="#F800C0"/>
</g>
</svg>
