<svg width="37" height="37" viewBox="0 0 37 37" fill="none" xmlns="http://www.w3.org/2000/svg">
<g id="Group">
<path id="Vector" d="M5.78125 18.5C5.78125 9.64948 12.164 2.59477 20.6904 1.57315C19.9746 1.48882 19.2437 1.44531 18.5 1.44531C8.92134 1.44531 1.44531 8.92134 1.44531 18.5C1.44531 28.0787 8.92134 35.5547 18.5 35.5547C18.6849 35.5547 18.8692 35.5518 19.0527 35.546L19.3763 35.2191C11.5165 33.666 5.78125 26.8896 5.78125 18.5Z" fill="#CEE1F2"/>
<path id="Vector_2" d="M22.763 19.1045C21.7171 18.7559 20.583 19.0233 19.8037 19.8027C19.0244 20.582 18.7568 21.7159 19.1054 22.762L23.1934 35.0262C23.3343 35.4485 23.5757 35.8387 23.8916 36.1546C25.0188 37.2817 26.8524 37.2817 27.9796 36.1546C28.3382 35.796 28.5969 35.3483 28.7278 34.8598L29.5916 31.6346L34.1115 36.1546C34.6759 36.719 35.5912 36.719 36.1556 36.1546C36.72 35.5902 36.72 34.6751 36.1555 34.1107L31.6356 29.5907L34.8607 28.7268C35.3492 28.596 35.7969 28.3373 36.1556 27.9786C37.2825 26.8516 37.2825 25.0178 36.1554 23.8906C35.8394 23.5746 35.4491 23.3332 35.0268 23.1924L22.763 19.1045ZM29.2744 27.2305C28.7859 27.3614 28.3382 27.6201 27.9795 27.9787C27.6209 28.3373 27.3623 28.7851 27.2314 29.2735L25.9356 34.1118L21.8487 21.8468L34.1128 25.9346L29.2744 27.2305Z" fill="#FF5CF4"/>
<g id="Group_2">
<path id="Vector_3" d="M18.5 0C8.1262 0 0 8.12613 0 18.5C0 28.8738 8.1262 37 18.5 37C18.6987 37 18.8999 36.9969 19.098 36.9907C19.8959 36.9657 20.5223 36.2986 20.4974 35.5008C20.4723 34.7029 19.8031 34.0771 19.0075 34.1014C18.8394 34.1067 18.6687 34.1094 18.5 34.1094C9.74704 34.1094 2.89062 27.253 2.89062 18.5C2.89062 9.74712 9.74704 2.89062 18.5 2.89062C27.3989 2.89062 34.1094 9.47691 34.1094 18.2109C34.1094 18.4179 34.1053 18.6267 34.0975 18.8315C34.0669 19.6292 34.6887 20.3006 35.4863 20.3311C36.2828 20.3615 36.9554 19.74 36.9861 18.9423C36.9953 18.7008 37 18.4547 37 18.2109C37 13.2039 35.0925 8.58386 31.6291 5.20204C28.1936 1.84747 23.5308 0 18.5 0Z" fill="#0023C4"/>
<path id="Vector_4" d="M17.3854 18.5003C17.3854 17.7021 16.7383 17.055 15.9401 17.055H14.2102C14.3937 14.1224 15.1311 11.0869 16.4101 8.01024C16.7165 7.27313 16.3674 6.42726 15.6303 6.12086C14.8932 5.81445 14.0473 6.16364 13.7409 6.90068C12.3125 10.3368 11.4985 13.7455 11.3141 17.0551H6.9375C6.13925 17.0551 5.49219 17.7021 5.49219 18.5004C5.49219 19.2986 6.13925 19.9457 6.9375 19.9457H11.3141C11.4986 23.2552 12.3125 26.664 13.7409 30.1001C14.0473 30.8373 14.8932 31.1863 15.6303 30.8799C16.3673 30.5735 16.7165 29.7277 16.4101 28.9905C15.1311 25.9139 14.3937 22.8784 14.2102 19.9458H15.9401C16.7383 19.9456 17.3854 19.2986 17.3854 18.5003Z" fill="#0023C4"/>
<path id="Vector_5" d="M24.252 16.6986C25.0436 16.5957 25.6018 15.8706 25.4989 15.079C25.1494 12.3904 24.395 9.6388 23.2569 6.90066C22.9505 6.16355 22.1046 5.8145 21.3675 6.12084C20.6304 6.42724 20.2812 7.27311 20.5877 8.01022C21.6278 10.5126 22.3158 13.0162 22.6324 15.4517C22.7353 16.2432 23.4604 16.8016 24.252 16.6986Z" fill="#0023C4"/>
</g>
</g>
</svg>
