<svg width="32" height="32" viewBox="0 0 32 32" fill="none" xmlns="http://www.w3.org/2000/svg">
<path d="M3.65625 25.0435V30.7501H7.3125V12.3537C7.3125 12.3537 7.3125 10.4822 7.3125 8.11133C5.31997 9.97164 3.65625 11.5251 3.65625 11.5251C3.65625 11.5251 3.65625 19.3757 3.65625 25.0435Z" fill="#CEE1F2"/>
<path d="M13.1621 24.75H18.0371C20.0532 24.75 21.6934 23.0678 21.6934 21V16C21.6934 13.9323 20.0532 12.25 18.0371 12.25H13.1621C11.1461 12.25 9.50586 13.9323 9.50586 16V21C9.50586 23.0678 11.1461 24.75 13.1621 24.75ZM11.9434 21V19.75H14.3809V22.25H13.1621C12.4901 22.25 11.9434 21.6893 11.9434 21ZM18.0371 22.25H16.8184V19.75H19.2559V21C19.2559 21.6893 18.7091 22.25 18.0371 22.25ZM19.2559 16V17.25H16.8184V14.75H18.0371C18.7091 14.75 19.2559 15.3108 19.2559 16ZM13.1621 14.75H14.3809V17.25H11.9434V16C11.9434 15.3108 12.4901 14.75 13.1621 14.75Z" fill="#F800C0"/>
<path d="M1.21875 32H29.9812C30.6544 32 31.2 31.4404 31.2 30.75C31.2 30.0596 30.6544 29.5 29.9812 29.5H4.875V12.0371L14.7942 2.81219C15.0166 2.61087 15.3026 2.5 15.6 2.5C15.8974 2.5 16.1834 2.61081 16.4058 2.81219L26.325 12.0371V25.75C26.325 26.4404 26.8706 27 27.5437 27C28.2169 27 28.7625 26.4404 28.7625 25.75V14.3039L29.1626 14.676C29.6611 15.1397 30.432 15.1011 30.884 14.5897C31.3362 14.0782 31.2985 13.2878 30.7999 12.8241L28.7625 10.9292V3.75C28.7625 3.05963 28.2169 2.5 27.5437 2.5C26.8706 2.5 26.325 3.05963 26.325 3.75V8.66231L18.0383 0.955688C18.0355 0.953063 18.0326 0.9505 18.0298 0.947875C17.3601 0.336625 16.4972 0 15.6 0C14.7028 0 13.8399 0.336625 13.1702 0.947875C13.1674 0.9505 13.1645 0.953063 13.1617 0.955688L0.400116 12.824C-0.0985359 13.2877 -0.136195 14.0782 0.315961 14.5896C0.768056 15.1011 1.53885 15.1397 2.03745 14.6759L2.4375 14.3039V29.5H1.21875C0.545634 29.5 0 30.0596 0 30.75C0 31.4404 0.545634 32 1.21875 32Z" fill="#003DCA"/>
</svg>
