<svg width="32" height="31" viewBox="0 0 32 31" fill="none" xmlns="http://www.w3.org/2000/svg">
<path d="M5 26.8375V3.5625C5 2.25085 6.11931 1.1875 7.5 1.1875H3.75C2.36931 1.1875 1.25 2.25085 1.25 3.5625V26.8375C1.25 28.1492 2.36931 29.2125 3.75 29.2125H7.5C6.11931 29.2125 5 28.1492 5 26.8375Z" fill="#CEE1F2"/>
<path d="M12.5 9.5V10.6875C12.5 11.3434 13.0596 11.875 13.75 11.875C14.4404 11.875 15 11.3434 15 10.6875V5.9375C15 5.28164 14.4404 4.75 13.75 4.75C13.0596 4.75 12.5 5.28164 12.5 5.9375V7.125H10V5.9375C10 5.28164 9.44037 4.75 8.75 4.75C8.05963 4.75 7.5 5.28164 7.5 5.9375V10.6875C7.5 11.3434 8.05963 11.875 8.75 11.875C9.44037 11.875 10 11.3434 10 10.6875V9.5H12.5Z" fill="#F800C0"/>
<path d="M8.75 14.0127H6.25C5.55963 14.0127 5 14.5443 5 15.2002C5 15.8561 5.55963 16.3877 6.25 16.3877H8.75C9.44037 16.3877 10 15.8561 10 15.2002C10 14.5443 9.44037 14.0127 8.75 14.0127Z" fill="#003DCA"/>
<path d="M16.25 14.0127H13.75C13.0596 14.0127 12.5 14.5443 12.5 15.2002C12.5 15.8561 13.0596 16.3877 13.75 16.3877H16.25C16.9404 16.3877 17.5 15.8561 17.5 15.2002C17.5 14.5443 16.9404 14.0127 16.25 14.0127Z" fill="#003DCA"/>
<path d="M8.75 18.7627H6.25C5.55963 18.7627 5 19.2943 5 19.9502C5 20.6061 5.55963 21.1377 6.25 21.1377H8.75C9.44037 21.1377 10 20.6061 10 19.9502C10 19.2943 9.44037 18.7627 8.75 18.7627Z" fill="#003DCA"/>
<path d="M16.25 18.7627H13.75C13.0596 18.7627 12.5 19.2943 12.5 19.9502C12.5 20.6061 13.0596 21.1377 13.75 21.1377H16.25C16.9404 21.1377 17.5 20.6061 17.5 19.9502C17.5 19.2943 16.9404 18.7627 16.25 18.7627Z" fill="#003DCA"/>
<path d="M8.75 23.5127H6.25C5.55963 23.5127 5 24.0443 5 24.7002C5 25.3561 5.55963 25.8877 6.25 25.8877H8.75C9.44037 25.8877 10 25.3561 10 24.7002C10 24.0443 9.44037 23.5127 8.75 23.5127Z" fill="#003DCA"/>
<path d="M16.25 23.5127H13.75C13.0596 23.5127 12.5 24.0443 12.5 24.7002C12.5 25.3561 13.0596 25.8877 13.75 25.8877H16.25C16.9404 25.8877 17.5 25.3561 17.5 24.7002C17.5 24.0443 16.9404 23.5127 16.25 23.5127Z" fill="#003DCA"/>
<path d="M28.25 14.0125H25.75C25.0596 14.0125 24.5 14.5441 24.5 15.2C24.5 15.8559 25.0596 16.3875 25.75 16.3875H28.25C28.9393 16.3875 29.5 16.9202 29.5 17.575V26.8375C29.5 27.4923 28.9393 28.025 28.25 28.025H22.285C22.4237 27.6533 22.5 27.2538 22.5 26.8375V3.5625C22.5 1.59814 20.8177 0 18.75 0H3.75C1.68225 0 0 1.59814 0 3.5625V26.8375C0 28.8019 1.68225 30.4 3.75 30.4H28.25C30.3177 30.4 32 28.8019 32 26.8375V17.575C32 15.6106 30.3177 14.0125 28.25 14.0125ZM2.5 26.8375V3.5625C2.5 2.90771 3.06075 2.375 3.75 2.375H18.75C19.4393 2.375 20 2.90771 20 3.5625V26.8375C20 27.4923 19.4393 28.025 18.75 28.025H3.75C3.06075 28.025 2.5 27.4923 2.5 26.8375Z" fill="#003DCA"/>
</svg>
