<svg width="31" height="30" viewBox="0 0 31 30" fill="none" xmlns="http://www.w3.org/2000/svg">
<g id="Group 1000004045">
<path id="Vector" d="M4.69982 22.319V3.52416C4.69982 2.22667 5.75168 1.1748 7.04917 1.1748H3.52514C2.22765 1.1748 1.17578 2.22667 1.17578 3.52416V22.319C1.17578 23.6165 2.22765 24.6684 3.52514 24.6684H7.04917C5.75168 24.6684 4.69982 23.6165 4.69982 22.319Z" fill="#CEE1F2"/>
<path id="Vector_2" d="M16.2087 22.3189V10.5721C16.2087 9.92336 15.6828 9.39746 15.0341 9.39746C14.3853 9.39746 13.8594 9.92336 13.8594 10.5721V22.3189C13.8594 22.9677 14.3853 23.4936 15.0341 23.4936C15.6828 23.4936 16.2087 22.9677 16.2087 22.3189Z" fill="#FF5CF4"/>
<g id="Group">
<path id="Vector_3" d="M26.5477 0H22.084C19.7181 0 17.4667 1.01657 15.9071 2.78904C15.4425 3.31694 14.6365 3.3254 14.1646 2.78904C12.6051 1.01657 10.3537 0 7.98781 0H3.52403C1.58088 0 0 1.58088 0 3.52403V22.3189C0 24.262 1.58088 25.8429 3.52403 25.8429H7.98781C9.6787 25.8429 11.2872 26.5688 12.4009 27.8346C13.7989 29.4234 16.2637 29.4338 17.6709 27.8346C18.7846 26.5689 20.3931 25.8429 22.084 25.8429H26.5477C28.4909 25.8429 30.0718 24.262 30.0718 22.3189V3.52403C30.0718 1.58088 28.4909 0 26.5477 0ZM27.7224 22.3189C27.7224 22.9666 27.1954 23.4936 26.5477 23.4936H22.084C19.7181 23.4936 17.4667 24.5101 15.9071 26.2826C15.4425 26.8106 14.6366 26.8189 14.1647 26.2826C12.6051 24.5101 10.3537 23.4936 7.98781 23.4936H3.52403C2.87632 23.4936 2.34936 22.9666 2.34936 22.3189V3.52403C2.34936 2.87632 2.87632 2.34936 3.52403 2.34936H7.98781C9.6787 2.34936 11.2872 3.07531 12.4009 4.34102C13.7987 5.9296 16.2634 5.94052 17.6709 4.34102C18.7846 3.07531 20.3931 2.34936 22.084 2.34936H26.5477C27.1954 2.34936 27.7224 2.87632 27.7224 3.52403V22.3189Z" fill="#0023C4"/>
<path id="Vector_4" d="M24.198 7.04785H21.8486C20.9089 7.04785 19.9871 7.20461 19.1091 7.51379C18.4972 7.72922 18.1757 8.39997 18.3912 9.01191C18.6061 9.62234 19.2759 9.94578 19.8894 9.72976C20.516 9.5091 21.1752 9.39721 21.8485 9.39721H24.1979C24.8467 9.39721 25.3726 8.8713 25.3726 8.22253C25.3726 7.57376 24.8467 7.04785 24.198 7.04785Z" fill="#0023C4"/>
<path id="Vector_5" d="M10.9628 7.51379C10.0848 7.20461 9.16305 7.04785 8.22325 7.04785H5.8739C5.22512 7.04785 4.69922 7.57376 4.69922 8.22253C4.69922 8.8713 5.22512 9.39721 5.8739 9.39721H8.22325C8.89658 9.39721 9.55575 9.5091 10.1824 9.72976C10.7966 9.94602 11.4659 9.62163 11.6806 9.01191C11.8961 8.40002 11.5747 7.72928 10.9628 7.51379Z" fill="#0023C4"/>
<path id="Vector_6" d="M24.198 11.7471H21.8486C20.9089 11.7471 19.9871 11.9038 19.1091 12.213C18.4972 12.4284 18.1757 13.0992 18.3912 13.7111C18.6061 14.3216 19.2759 14.645 19.8894 14.429C20.516 14.2083 21.1752 14.0964 21.8485 14.0964H24.1979C24.8467 14.0964 25.3726 13.5705 25.3726 12.9217C25.3726 12.273 24.8467 11.7471 24.198 11.7471Z" fill="#0023C4"/>
<path id="Vector_7" d="M10.9628 12.213C10.0848 11.9038 9.16305 11.7471 8.22325 11.7471H5.8739C5.22512 11.7471 4.69922 12.273 4.69922 12.9217C4.69922 13.5705 5.22512 14.0964 5.8739 14.0964H8.22325C8.89658 14.0964 9.55575 14.2083 10.1824 14.429C10.7966 14.6452 11.4659 14.3208 11.6806 13.7111C11.8961 13.0992 11.5747 12.4285 10.9628 12.213Z" fill="#0023C4"/>
<path id="Vector_8" d="M24.198 16.4453H21.8486C20.9089 16.4453 19.9871 16.6021 19.1091 16.9112C18.4972 17.1267 18.1757 17.7974 18.3912 18.4094C18.6061 19.0198 19.2759 19.3432 19.8894 19.1272C20.516 18.9066 21.1752 18.7947 21.8485 18.7947H24.1979C24.8467 18.7947 25.3726 18.2688 25.3726 17.62C25.3726 16.9712 24.8467 16.4453 24.198 16.4453Z" fill="#0023C4"/>
<path id="Vector_9" d="M10.9628 16.9112C10.0848 16.6021 9.16305 16.4453 8.22325 16.4453H5.8739C5.22512 16.4453 4.69922 16.9712 4.69922 17.62C4.69922 18.2688 5.22512 18.7947 5.8739 18.7947H8.22325C8.89658 18.7947 9.55575 18.9066 10.1824 19.1272C10.7966 19.3435 11.4659 19.0191 11.6806 18.4094C11.8961 17.7975 11.5747 17.1267 10.9628 16.9112Z" fill="#0023C4"/>
</g>
</g>
</svg>
