<svg width="32" height="32" viewBox="0 0 32 32" fill="none" xmlns="http://www.w3.org/2000/svg">
<path d="M24.4658 26.9982C23.9027 27.2405 23.283 27.3752 22.6317 27.3752C20.0565 27.3752 17.9688 25.2765 17.9688 22.6877C17.9688 20.0989 20.0565 18.0002 22.6317 18.0002C23.283 18.0002 23.9027 18.1348 24.4658 18.3772C22.8024 19.0934 21.637 20.7535 21.637 22.6877C21.637 24.6218 22.8024 26.282 24.4658 26.9982ZM4.97499 24.4716V15.4717C4.97499 12.0199 7.7977 9.22168 11.2313 9.22168H7.62536C4.19169 9.22168 1.4082 12.0199 1.4082 15.4717V24.4716C1.4082 27.9234 4.19169 30.7216 7.62536 30.7216H11.2313C7.7977 30.7216 4.97499 27.9234 4.97499 24.4716Z" fill="#CEE1F2"/>
<path d="M8.58061 16.75C8.58061 16.0596 8.02393 15.5 7.33718 15.5C6.65043 15.5 6.09375 16.0596 6.09375 16.75C6.09375 20.5064 8.92971 23.5625 13.057 23.5625C13.7437 23.5625 14.3004 23.0028 14.3004 22.3125C14.3004 21.6221 13.7437 21.0625 13.057 21.0625C10.4888 21.0625 8.58061 19.1279 8.58061 16.75Z" fill="#003DCA"/>
<path d="M22.6309 16.75C19.3742 16.75 16.7246 19.4136 16.7246 22.6875C16.7246 25.9614 19.3742 28.6249 22.6309 28.6249C25.8876 28.6249 28.5372 25.9614 28.5372 22.6875C28.5372 19.4136 25.8876 16.75 22.6309 16.75ZM22.6309 26.125C20.7454 26.125 19.2115 24.5829 19.2115 22.6875C19.2115 20.792 20.7454 19.25 22.6309 19.25C24.5164 19.25 26.0503 20.792 26.0503 22.6875C26.0503 24.5829 24.5164 26.125 22.6309 26.125Z" fill="#003DCA"/>
<path d="M24.3713 8H7.46059C3.34682 8 0 11.3645 0 15.5V24.4999C0 28.6354 3.34682 31.9999 7.46059 31.9999H17.5324C18.2191 31.9999 18.7758 31.4403 18.7758 30.7499C18.7758 30.0595 18.2191 29.4999 17.5324 29.4999H7.46059C4.71808 29.4999 2.48686 27.2569 2.48686 24.4999V15.5C2.48686 12.743 4.71808 10.5 7.46059 10.5H24.3713C27.1138 10.5 29.345 12.743 29.345 15.5V17.1875C29.345 17.8778 29.9017 18.4375 30.5884 18.4375C31.2752 18.4375 31.8318 17.8778 31.8318 17.1875V15.5C31.8318 11.3645 28.485 8 24.3713 8Z" fill="#003DCA"/>
<path d="M30.5886 31.9999C30.2703 31.9999 29.9521 31.8779 29.7093 31.6338L27.9685 29.8838C27.4829 29.3956 27.4829 28.6041 27.9685 28.116C28.4541 27.6279 29.2414 27.6278 29.727 28.116L31.4678 29.866C31.9534 30.3542 31.9534 31.1457 31.4678 31.6338C31.225 31.8779 30.9068 31.9999 30.5886 31.9999ZM21.8224 4.31248C21.8224 1.93455 19.898 0 17.5325 0H14.2996C11.9342 0 10.0098 1.93455 10.0098 4.31248C10.0098 5.00285 10.5664 5.56248 11.2532 5.56248C11.9399 5.56248 12.4966 5.00285 12.4966 4.31248C12.4966 3.31311 13.3054 2.49999 14.2996 2.49999H17.5325C18.5267 2.49999 19.3355 3.31311 19.3355 4.31248C19.3355 5.00285 19.8922 5.56248 20.5789 5.56248C21.2657 5.56248 21.8224 5.00285 21.8224 4.31248ZM15.9368 14.6249C15.0784 14.6249 14.3825 15.3245 14.3825 16.1874C14.3825 17.0504 15.0784 17.7499 15.9368 17.7499C16.7952 17.7499 17.4911 17.0504 17.4911 16.1874C17.4911 15.3245 16.7952 14.6249 15.9368 14.6249Z" fill="#F800C0"/>
</svg>
