<svg width="25" height="25" viewBox="0 0 25 25" fill="none" xmlns="http://www.w3.org/2000/svg">
<path d="M12.0908 13.6005C11.3435 13.6005 10.613 13.3789 9.99169 12.9638C9.37035 12.5486 8.88608 11.9585 8.60011 11.2681C8.31414 10.5777 8.23931 9.81805 8.3851 9.08513C8.53089 8.35221 8.89073 7.67899 9.41914 7.15058C9.94754 6.62218 10.6208 6.26233 11.3537 6.11655C12.0866 5.97076 12.8463 6.04558 13.5367 6.33155C14.2271 6.61752 14.8172 7.1018 15.2323 7.72313C15.6475 8.34447 15.8691 9.07496 15.8691 9.82224C15.8679 10.824 15.4695 11.7843 14.7612 12.4926C14.0529 13.201 13.0925 13.5994 12.0908 13.6005ZM12.0908 7.55526C11.6424 7.55526 11.2041 7.68822 10.8313 7.93732C10.4585 8.18642 10.168 8.54047 9.99638 8.95471C9.8248 9.36894 9.77991 9.82475 9.86738 10.2645C9.95485 10.7043 10.1708 11.1082 10.4878 11.4252C10.8048 11.7423 11.2088 11.9582 11.6485 12.0457C12.0883 12.1331 12.5441 12.0882 12.9583 11.9167C13.3726 11.7451 13.7266 11.4545 13.9757 11.0817C14.2248 10.7089 14.3578 10.2706 14.3578 9.82224C14.3571 9.2212 14.1181 8.64497 13.6931 8.21997C13.2681 7.79498 12.6918 7.55592 12.0908 7.55526Z" fill="black"/>
<path d="M12.0896 22.6692L5.71524 15.1514C5.67904 15.1082 5.45212 14.8102 5.45212 14.8102C4.36314 13.3759 3.7748 11.6239 3.77735 9.82299C3.77735 7.61844 4.6531 5.50419 6.21195 3.94534C7.7708 2.38649 9.88505 1.51074 12.0896 1.51074C14.2941 1.51074 16.4084 2.38649 17.9672 3.94534C19.5261 5.50419 20.4018 7.61844 20.4018 9.82299C20.4046 11.6231 19.8166 13.3744 18.7282 14.8083L18.7271 14.8102C18.7271 14.8102 18.5004 15.1082 18.4666 15.1483L12.0896 22.6692ZM6.6583 13.8998C6.65906 13.9003 6.83467 14.1327 6.87487 14.1827L12.0896 20.3326L17.3112 14.174C17.3444 14.1323 17.5215 13.8983 17.5219 13.8976C18.4115 12.7257 18.8923 11.2943 18.8905 9.82299C18.8905 8.01927 18.174 6.28943 16.8986 5.014C15.6232 3.73858 13.8933 3.02206 12.0896 3.02206C10.2859 3.02206 8.55604 3.73858 7.28061 5.014C6.00519 6.28943 5.28867 8.01927 5.28867 9.82299C5.287 11.2951 5.76812 12.7272 6.6583 13.8998Z" fill="black"/>
</svg>
