<svg width="50" height="51" viewBox="0 0 50 51" fill="none" xmlns="http://www.w3.org/2000/svg">
<path d="M42.3146 25.7062C42.3146 24.6387 41.4493 23.7734 40.3818 23.7734C39.3144 23.7734 38.4491 24.6387 38.4491 25.7062C38.4491 33.1661 32.3799 39.2353 24.92 39.2353C17.46 39.2353 11.3909 33.1661 11.3909 25.7062C11.3909 24.6387 10.5256 23.7734 9.45812 23.7734C8.39067 23.7734 7.52539 24.6387 7.52539 25.7062C7.52539 34.6443 14.3021 42.0282 22.9872 42.9928V46.1931H17.1891C16.1216 46.1931 15.2563 47.0584 15.2563 48.1259C15.2563 49.1933 16.1216 50.0586 17.1891 50.0586H32.6509C33.7184 50.0586 34.5836 49.1933 34.5836 48.1259C34.5836 47.0584 33.7184 46.1931 32.6509 46.1931H26.8527V42.9928C35.5378 42.0282 42.3146 34.6443 42.3146 25.7062Z" fill="#FEFEFE"/>
<path d="M24.9215 35.3693C19.5929 35.3693 15.2578 31.0341 15.2578 25.7056V10.2437C15.2578 4.9152 19.5929 0.580078 24.9215 0.580078C30.25 0.580078 34.5851 4.9152 34.5851 10.2437V25.7056C34.5851 31.0341 30.25 35.3693 24.9215 35.3693ZM24.9215 4.44554C21.7243 4.44554 19.1233 7.04661 19.1233 10.2437V25.7056C19.1233 28.9027 21.7243 31.5038 24.9215 31.5038C28.1186 31.5038 30.7197 28.9027 30.7197 25.7056V10.2437C30.7197 7.04661 28.1186 4.44554 24.9215 4.44554Z" fill="#FEFEFE"/>
<path d="M9.46008 19.9067C8.39263 19.9067 7.52734 19.0414 7.52734 17.974V14.1085C7.52734 13.0411 8.39263 12.1758 9.46008 12.1758C10.5275 12.1758 11.3928 13.0411 11.3928 14.1085V17.974C11.3928 19.0414 10.5275 19.9067 9.46008 19.9067Z" fill="#FEFEFE"/>
<path d="M2.11633 23.7724C1.04888 23.7724 0.183594 22.9071 0.183594 21.8397V10.2433C0.183594 9.17583 1.04888 8.31055 2.11633 8.31055C3.18377 8.31055 4.04906 9.17583 4.04906 10.2433V21.8397C4.04906 22.9071 3.18377 23.7724 2.11633 23.7724Z" fill="#FEFEFE"/>
<path d="M40.3859 19.9067C39.3184 19.9067 38.4531 19.0414 38.4531 17.974V14.1085C38.4531 13.0411 39.3184 12.1758 40.3859 12.1758C41.4533 12.1758 42.3186 13.0411 42.3186 14.1085V17.974C42.3186 19.0414 41.4533 19.9067 40.3859 19.9067Z" fill="#FEFEFE"/>
<path d="M47.7277 23.7724C46.6602 23.7724 45.7949 22.9071 45.7949 21.8397V10.2433C45.7949 9.17583 46.6602 8.31055 47.7277 8.31055C48.7951 8.31055 49.6604 9.17583 49.6604 10.2433V21.8397C49.6604 22.9071 48.7951 23.7724 47.7277 23.7724Z" fill="#FEFEFE"/>
</svg>
