<svg width="29" height="29" viewBox="0 0 29 29" fill="none" xmlns="http://www.w3.org/2000/svg">
<g id="Group">
<path id="Vector" d="M14.6699 6.79688C12.796 6.79688 11.2715 5.27234 11.2715 3.39844C11.2715 1.52454 12.796 0 14.6699 0C16.5438 0 18.0684 1.52454 18.0684 3.39844C18.0684 5.27234 16.5438 6.79688 14.6699 6.79688ZM14.6699 2.26562C14.0453 2.26562 13.5371 2.7738 13.5371 3.39844C13.5371 4.02307 14.0453 4.53125 14.6699 4.53125C15.2946 4.53125 15.8027 4.02307 15.8027 3.39844C15.8027 2.7738 15.2946 2.26562 14.6699 2.26562ZM19.7109 12.6875C19.7109 10.1265 17.5981 8.04297 15.0012 8.04297H14.3387C11.7417 8.04297 9.62891 10.1265 9.62891 12.6875C9.62891 13.3132 10.1361 13.8203 10.7617 13.8203C11.3874 13.8203 11.8945 13.3132 11.8945 12.6875C11.8945 11.3758 12.991 10.3086 14.3387 10.3086H15.0011C16.3489 10.3086 17.4453 11.3758 17.4453 12.6875C17.4453 13.3132 17.9525 13.8203 18.5781 13.8203C19.2038 13.8203 19.7109 13.3132 19.7109 12.6875ZM5.04102 21.9766C3.16712 21.9766 1.64258 20.452 1.64258 18.5781C1.64258 16.7042 3.16712 15.1797 5.04102 15.1797C6.91491 15.1797 8.43945 16.7042 8.43945 18.5781C8.43945 20.452 6.91491 21.9766 5.04102 21.9766ZM5.04102 17.4453C4.41638 17.4453 3.9082 17.9535 3.9082 18.5781C3.9082 19.2028 4.41638 19.7109 5.04102 19.7109C5.66565 19.7109 6.17383 19.2028 6.17383 18.5781C6.17383 17.9535 5.66565 17.4453 5.04102 17.4453ZM10.082 27.8672C10.082 25.3062 7.96922 23.2227 5.37225 23.2227H4.70978C2.11281 23.2227 0 25.3062 0 27.8672C0 28.4928 0.50716 29 1.13281 29C1.75846 29 2.26562 28.4928 2.26562 27.8672C2.26562 26.5554 3.36207 25.4883 4.70978 25.4883H5.37219C6.71996 25.4883 7.81641 26.5554 7.81641 27.8672C7.81641 28.4928 8.32357 29 8.94922 29C9.57487 29 10.082 28.4928 10.082 27.8672ZM23.959 21.9766C22.0851 21.9766 20.5605 20.452 20.5605 18.5781C20.5605 16.7042 22.0851 15.1797 23.959 15.1797C25.8329 15.1797 27.3574 16.7042 27.3574 18.5781C27.3574 20.452 25.8329 21.9766 23.959 21.9766ZM23.959 17.4453C23.3344 17.4453 22.8262 17.9535 22.8262 18.5781C22.8262 19.2028 23.3344 19.7109 23.959 19.7109C24.5836 19.7109 25.0918 19.2028 25.0918 18.5781C25.0918 17.9535 24.5836 17.4453 23.959 17.4453ZM29 27.8672C29 25.3062 26.8872 23.2227 24.2902 23.2227H23.6278C21.0308 23.2227 18.918 25.3062 18.918 27.8672C18.918 28.4928 19.4251 29 20.0508 29C20.6764 29 21.1836 28.4928 21.1836 27.8672C21.1836 26.5554 22.28 25.4883 23.6278 25.4883H24.2902C25.6379 25.4883 26.7344 26.5554 26.7344 27.8672C26.7344 28.4928 27.2415 29 27.8672 29C28.4928 29 29 28.4928 29 27.8672Z" fill="#003DCA"/>
<path id="Vector_2" d="M24.9104 13.2536C24.3989 13.2536 23.9348 12.9047 23.8099 12.3854C23.2821 10.1899 21.9741 8.2517 20.127 6.92766C19.6185 6.56318 19.5017 5.85551 19.8662 5.347C20.2308 4.83842 20.9385 4.72174 21.4469 5.08622C23.7363 6.72721 25.3578 9.13133 26.0128 11.8557C26.1591 12.4641 25.7845 13.0757 25.1762 13.222C25.0872 13.2434 24.9981 13.2536 24.9104 13.2536ZM5.47285 12.3854C5.99542 10.2119 7.28541 8.28653 9.10521 6.96397C9.61135 6.59615 9.72345 5.88774 9.35562 5.3816C8.98774 4.87552 8.27922 4.76343 7.77325 5.13125C5.51777 6.77049 3.9184 9.15863 3.26993 11.8558C3.12368 12.4641 3.49824 13.0758 4.10656 13.222C4.1956 13.2434 4.28464 13.2537 4.37232 13.2537C4.88384 13.2536 5.34796 12.9047 5.47285 12.3854ZM18.1217 24.5849C18.7191 24.3989 19.0526 23.7639 18.8665 23.1665C18.6805 22.5693 18.0457 22.2356 17.4481 22.4217C16.4529 22.7316 15.5347 22.8823 14.6414 22.8823C13.7018 22.8823 12.7065 22.711 11.6831 22.373C11.0889 22.1769 10.4483 22.4994 10.2522 23.0935C10.056 23.6876 10.3786 24.3282 10.9728 24.5244C12.2258 24.9381 13.4601 25.1479 14.6414 25.1479C15.7666 25.1479 16.9051 24.9638 18.1217 24.5849Z" fill="#F800C0"/>
</g>
</svg>
