<svg width="55" height="53" viewBox="0 0 55 53" fill="none" xmlns="http://www.w3.org/2000/svg">
<path d="M24.6721 26.0999L12.2899 26.0999M52.0308 24.6945C52.2942 24.8228 52.5162 25.0225 52.6714 25.271C52.8267 25.5195 52.9089 25.8066 52.9087 26.0995C52.9084 26.3925 52.8258 26.6795 52.6702 26.9277C52.5146 27.1759 52.2923 27.3754 52.0287 27.5032L4.86463 50.2165C4.58262 50.3522 4.26634 50.4 3.95682 50.3537C3.6473 50.3075 3.35882 50.1693 3.12881 49.9571C2.89879 49.7448 2.73786 49.4684 2.66688 49.1636C2.5959 48.8588 2.61816 48.5397 2.73076 48.2477L11.0331 26.6592C11.1715 26.2992 11.1715 25.9007 11.0331 25.5407L2.73282 3.95011C2.62121 3.65844 2.59962 3.34002 2.67084 3.03596C2.74207 2.7319 2.90283 2.45619 3.13236 2.24443C3.36189 2.03268 3.64963 1.89462 3.95843 1.84808C4.26724 1.80155 4.58289 1.84868 4.86463 1.98339L52.0308 24.6945Z" stroke="white" stroke-width="3.39973" stroke-linecap="round" stroke-linejoin="round"/>
</svg>
