<svg width="30" height="30" viewBox="0 0 30 30" fill="none" xmlns="http://www.w3.org/2000/svg">
<g id="Group 1000003592">
<path id="Vector" d="M4.6875 17.1094C4.6875 11.2348 9.01031 6.37008 14.6484 5.52187C14.075 5.43562 13.4881 5.39062 12.8906 5.39062C6.41854 5.39062 1.17188 10.6373 1.17188 17.1094C1.17188 23.5815 6.41854 28.8281 12.8906 28.8281C13.4881 28.8281 14.075 28.7831 14.6484 28.6969C9.01031 27.8487 4.6875 22.984 4.6875 17.1094Z" fill="#F800C0"/>
<path id="Vector_2" d="M12.8906 8.90625C12.2434 8.90625 11.7188 9.4309 11.7188 10.0781V13.7953C10.3548 14.2791 9.375 15.5817 9.375 17.1094C9.375 19.0479 10.9521 20.625 12.8906 20.625C14.8291 20.625 16.4062 19.0479 16.4062 17.1094C16.4062 15.5817 15.4264 14.2791 14.0625 13.7953V10.0781C14.0625 9.4309 13.5379 8.90625 12.8906 8.90625ZM12.8906 18.2812C12.2445 18.2812 11.7188 17.7555 11.7188 17.1094C11.7188 16.4632 12.2445 15.9375 12.8906 15.9375C13.5368 15.9375 14.0625 16.4632 14.0625 17.1094C14.0625 17.7555 13.5368 18.2812 12.8906 18.2812Z" fill="#F800C0"/>
<g id="Group">
<path id="Vector_3" d="M24.1406 0C24.1406 0 24.1407 0 24.1406 0C22.8894 0 21.7585 0.643594 21.1157 1.72143C18.2812 6.47484 18.2812 8.024 18.2812 8.53307C18.2812 11.7639 20.9098 14.3924 24.1406 14.3924C27.3715 14.3924 30 11.7639 30 8.53307C30 8.024 30 6.47479 27.1655 1.72143C26.5227 0.643535 25.3919 0 24.1406 0ZM24.1406 12.0487C22.2021 12.0487 20.625 10.4716 20.625 8.53307C20.625 8.20172 20.8056 6.81779 23.1288 2.92184C23.4399 2.40006 23.9401 2.34375 24.1406 2.34375C24.3412 2.34375 24.8413 2.40006 25.1524 2.92184C27.4757 6.81773 27.6562 8.20172 27.6562 8.53307C27.6562 10.4716 26.0791 12.0487 24.1406 12.0487Z" fill="#003DCA"/>
<path id="Vector_4" d="M0 17.1094C0 24.2337 5.76539 30 12.8906 30C20.0149 30 25.7812 24.2346 25.7812 17.1094C25.7812 16.4621 25.2566 15.9375 24.6094 15.9375C23.9621 15.9375 23.4375 16.4621 23.4375 17.1094C23.4375 22.9249 18.7062 27.6562 12.8906 27.6562C7.07508 27.6562 2.34375 22.9249 2.34375 17.1094C2.34375 11.2938 7.07508 6.5625 12.8906 6.5625C13.6857 6.5625 14.478 6.65115 15.2454 6.82611C15.8765 6.96984 16.5046 6.57498 16.6484 5.94393C16.7922 5.31287 16.3972 4.68475 15.7662 4.54096C15.2069 4.41352 14.637 4.32439 14.0624 4.27248V2.34375H15.2343C15.8815 2.34375 16.4062 1.8191 16.4062 1.17188C16.4062 0.524648 15.8815 0 15.2343 0H10.5468C9.89959 0 9.37494 0.524648 9.37494 1.17188C9.37494 1.8191 9.89959 2.34375 10.5468 2.34375H11.7187V4.27184C5.16568 4.85859 0 10.3608 0 17.1094Z" fill="#003DCA"/>
</g>
</g>
</svg>
