<svg width="31" height="32" viewBox="0 0 31 32" fill="none" xmlns="http://www.w3.org/2000/svg">
<g id="Group">
<path id="Vector" d="M6.66562 30.75C5.34016 30.75 4.26562 29.6307 4.26562 28.25V18.25C4.26562 16.8693 5.34016 15.75 6.66562 15.75C7.99108 15.75 9.06562 16.8693 9.06562 18.25V28.25C9.06562 29.6307 7.99108 30.75 6.66562 30.75Z" fill="#CEE1F2"/>
<g id="Group_2">
<path id="Vector_2" d="M8.02809 11.4015C8.43237 11.6229 8.92233 11.586 9.29181 11.3064C9.66135 11.0267 9.84639 10.5527 9.76923 10.0838L9.33705 7.45899L11.1678 5.60006C11.4949 5.26793 11.6126 4.77118 11.4715 4.31868C11.3304 3.86618 10.9548 3.53637 10.5028 3.46794L7.97271 3.08494L6.84123 0.696812C6.63903 0.270125 6.22191 0 5.76513 0C5.30835 0 4.89123 0.270125 4.68903 0.696812L3.55755 3.08494L1.02747 3.46794C0.575494 3.53637 0.199954 3.86612 0.0587743 4.31868C-0.0824055 4.77125 0.0353743 5.26793 0.362434 5.60006L2.19321 7.45899L1.76103 10.0838C1.68381 10.5527 1.86891 11.0267 2.23845 11.3064C2.60799 11.5861 3.09789 11.6229 3.50217 11.4015L5.76513 10.1622L8.02809 11.4015ZM4.53753 8.01006L4.66533 7.23387C4.73211 6.82837 4.60305 6.41462 4.32027 6.12743L3.77889 5.57775L4.52709 5.4645C4.91793 5.40537 5.25585 5.14962 5.43063 4.78068L5.76525 4.0745L6.09987 4.78068C6.27465 5.14962 6.61251 5.40537 7.00341 5.4645L7.75161 5.57775L7.21023 6.12743C6.92745 6.41462 6.79839 6.82837 6.86517 7.23387L6.99297 8.01006L6.32373 7.64356C5.97417 7.45212 5.55645 7.45212 5.20695 7.64356L4.53753 8.01006Z" fill="#F800C0"/>
<path id="Vector_3" d="M29.7039 3.46794L27.1738 3.08494L26.0424 0.696812C25.8402 0.270125 25.423 0 24.9663 0C24.5095 0 24.0924 0.270125 23.8902 0.696812L22.7587 3.08494L20.2287 3.46794C19.7766 3.53637 19.4011 3.86618 19.26 4.31868C19.1188 4.77118 19.2365 5.26793 19.5636 5.60006L21.3944 7.45899L20.9622 10.0838C20.885 10.5527 21.0701 11.0267 21.4396 11.3064C21.8092 11.5861 22.2991 11.6229 22.7034 11.4015L24.9663 10.1622L27.2293 11.4015C27.6335 11.6229 28.1235 11.586 28.493 11.3064C28.8625 11.0267 29.0476 10.5527 28.9704 10.0838L28.5382 7.45899L30.369 5.60006C30.6961 5.26793 30.8138 4.77118 30.6727 4.31868C30.5315 3.86618 30.1559 3.53637 29.7039 3.46794ZM26.4112 6.12743C26.1284 6.41462 25.9994 6.82837 26.0662 7.23387L26.194 8.01006L25.5247 7.64356C25.1752 7.45212 24.7575 7.45212 24.408 7.64356L23.7387 8.01006L23.8665 7.23387C23.9333 6.82837 23.8042 6.41462 23.5215 6.12743L22.9801 5.57775L23.7283 5.4645C24.1191 5.40537 24.457 5.14962 24.6318 4.78068L24.9664 4.0745L25.3011 4.78068C25.4758 5.14962 25.8137 5.40537 26.2046 5.4645L26.9528 5.57775L26.4112 6.12743Z" fill="#003DCA"/>
</g>
<g id="Group_3">
<path id="Vector_4" d="M22.2664 17H19.8664V15.75C19.8664 12.3037 17.1748 9.5 13.8664 9.5C13.2036 9.5 12.6664 10.0596 12.6664 10.75V15.75C12.6664 16.4392 12.1281 17 11.4664 17H10.06C9.56464 15.5451 8.23078 14.5 6.6664 14.5C4.68137 14.5 3.06641 16.1822 3.06641 18.25V28.25C3.06641 30.3177 4.68137 32 6.6664 32C8.65144 32 10.2664 30.3177 10.2664 28.25V19.5H11.4664C13.4514 19.5 15.0664 17.8177 15.0664 15.75V12.2142C16.4633 12.7301 17.4664 14.1203 17.4664 15.75V18.25C17.4664 18.9404 18.0036 19.5 18.6664 19.5H22.2664C22.9281 19.5 23.4664 20.0607 23.4664 20.75C23.4664 20.9466 23.4242 21.1342 23.341 21.3075L20.941 26.3075C20.736 26.7346 20.3242 27 19.8663 27H13.8663C13.2036 27 12.6663 27.5596 12.6663 28.25C12.6663 28.9404 13.2036 29.5 13.8663 29.5H19.8663C21.2391 29.5 22.4734 28.7051 23.0876 27.4255L25.4876 22.4256C25.7354 21.9093 25.8664 21.3299 25.8664 20.75C25.8664 18.6822 24.2514 17 22.2664 17ZM7.8664 28.25C7.8664 28.9392 7.32808 29.5 6.6664 29.5C6.00472 29.5 5.4664 28.9392 5.4664 28.25V18.25C5.4664 17.5607 6.00472 17 6.6664 17C7.32808 17 7.8664 17.5607 7.8664 18.25V28.25Z" fill="#003DCA"/>
</g>
</g>
</svg>
