<svg width="34" height="32" viewBox="0 0 34 32" fill="none" xmlns="http://www.w3.org/2000/svg">
<g id="Group">
<path id="Vector" d="M12.604 28.8283L12.2877 27.8601C11.1998 28.4618 10.4888 28.4583 10.7764 26.2174C11.0092 24.6541 11.5482 22.0209 11.7982 20.9022L12.0773 19.6557C12.2254 18.9943 11.995 18.3052 11.4787 17.8659L10.5059 17.0381C9.62239 16.2864 8.46828 15.2451 7.41255 14.2221C8.88823 13.9736 10.429 13.7739 11.5068 13.6629L12.6648 13.5441C13.2865 13.4803 13.8324 13.1029 14.1118 12.5438L14.6319 11.5029C15.1818 10.4026 16.5537 7.65523 17.413 6.17633C18.0549 5.11711 19.3685 5.07689 19.91 6.17633L20.6484 5.91336C19.8146 4.4273 18.8595 2.84958 18.064 1.86651C17.468 1.12999 16.3396 1.13597 15.7463 1.87479C13.86 4.2242 11.105 9.74108 11.105 9.74108C11.105 9.74108 4.98304 10.3683 2.27172 11.4015C1.37887 11.7417 1.03272 12.8279 1.56976 13.6183C3.16844 15.9714 7.95103 20.0409 7.95103 20.0409C7.95103 20.0409 6.59389 26.1019 6.7506 29.0701C6.80074 30.0195 7.70449 30.6834 8.6225 30.4367C9.6785 30.1529 11.1743 29.5081 12.604 28.8283Z" fill="#CEE1F2"/>
<path id="Vector_2" d="M25.5602 32C25.3375 32 25.1132 31.9733 24.8916 31.9191C22.4781 31.3282 18.4431 29.0594 16.8656 28.139C15.2751 28.9929 11.2427 31.0938 8.9639 31.706C8.14393 31.9263 7.28039 31.767 6.59433 31.2691C5.90498 30.7688 5.48379 29.9926 5.43871 29.1396C5.30723 26.648 6.13811 22.2943 6.50417 20.5257C5.1402 19.3291 1.82941 16.3384 0.483246 14.357C0.000946546 13.6472 -0.127645 12.7698 0.130458 11.9499C0.389218 11.1278 0.99932 10.4804 1.80425 10.1736C4.10411 9.29728 8.52122 8.71681 10.2555 8.51364C11.055 6.9603 13.1483 3.00787 14.7302 1.0422C15.2623 0.381043 16.0542 0.00118275 16.9033 0H16.9072C17.7571 0 18.5511 0.378941 19.0862 1.04016C20.653 2.97626 22.7307 6.94952 23.5252 8.5145C25.2564 8.71918 29.6347 9.30661 31.904 10.2417C32.6852 10.5636 33.2745 11.2115 33.5211 12.0193C33.7662 12.8224 33.6404 13.6832 33.1759 14.3809C31.8834 16.3226 28.6369 19.3367 27.3193 20.5265C27.6514 22.3273 28.4456 26.9303 28.3548 29.3093C28.3227 30.1512 27.9178 30.9257 27.2439 31.4341C26.7513 31.8054 26.1616 32 25.5602 32ZM16.8934 25.314C17.1295 25.314 17.3652 25.3775 17.5741 25.504C19.0534 26.3995 23.3641 28.8391 25.5166 29.3661C25.5685 29.3788 25.6172 29.3686 25.6609 29.3356C25.7036 29.3034 25.7263 29.2607 25.7282 29.2089C25.8285 26.5795 24.6126 20.3569 24.6003 20.2944C24.51 19.8349 24.671 19.3621 25.0229 19.0532C26.2844 17.9457 29.8155 14.6856 30.9879 12.9242C30.9983 12.9086 31.03 12.8611 31.0071 12.7863C30.9957 12.7489 30.9683 12.6987 30.9024 12.6715C28.4478 11.66 22.5957 11.0545 22.5369 11.0484C22.0863 11.0025 21.691 10.7277 21.491 10.3213C21.4642 10.2669 18.7928 4.85566 17.0429 2.69332C17.0079 2.65009 16.9622 2.62814 16.9071 2.62814C16.907 2.62814 16.9069 2.62814 16.9069 2.62814C16.854 2.62821 16.8106 2.64897 16.7778 2.68977C15.0005 4.89837 12.3082 10.2742 12.2811 10.3282C12.0801 10.7307 11.6871 11.0025 11.2395 11.0484C11.1799 11.0545 5.25755 11.6701 2.74007 12.6295C2.68862 12.6491 2.65406 12.6859 2.63743 12.739C2.62146 12.7896 2.6281 12.837 2.65721 12.8798C4.13716 15.0582 8.75666 19.0006 8.80311 19.0401C9.17443 19.3562 9.34035 19.8521 9.23383 20.328C9.22069 20.3869 7.91809 26.2481 8.06337 29.0009C8.06659 29.0607 8.09169 29.1081 8.13801 29.1418C8.203 29.1889 8.2624 29.173 8.28191 29.1677C10.7947 28.4926 16.2028 25.5085 16.2571 25.4784C16.4553 25.3687 16.6745 25.314 16.8934 25.314Z" fill="#003DCA"/>
<path id="Vector_3" d="M21.9472 14.5215C22.8545 14.5215 23.5899 15.257 23.5899 16.1642C23.5899 17.0714 22.8545 17.8069 21.9472 17.8069C21.04 17.8069 20.3045 17.0714 20.3045 16.1642C20.3045 15.257 21.0399 14.5215 21.9472 14.5215ZM21.9472 14.5215C22.8545 14.5215 23.5899 15.257 23.5899 16.1642C23.5899 17.0714 22.8545 17.8069 21.9472 17.8069C21.04 17.8069 20.3045 17.0714 20.3045 16.1642C20.3045 15.257 21.0399 14.5215 21.9472 14.5215ZM19.1875 22.078C19.1875 22.9852 19.923 23.7207 20.8302 23.7207C21.7374 23.7207 22.4729 22.9852 22.4729 22.078C22.4729 21.1707 21.7374 20.4352 20.8302 20.4352C19.9229 20.4352 19.1875 21.1707 19.1875 22.078ZM14.5879 18.2669C14.5879 19.1741 15.3234 19.9096 16.2306 19.9096C17.1378 19.9096 17.8733 19.1741 17.8733 18.2669C17.8733 17.3596 17.1378 16.6242 16.2306 16.6242C15.3233 16.6242 14.5879 17.3596 14.5879 18.2669Z" fill="#F800C0"/>
</g>
</svg>
