<svg width="40" height="38" viewBox="0 0 40 38" fill="none" xmlns="http://www.w3.org/2000/svg">
<g id="Search">
<path id="Vector" d="M31.9478 3.9655C31.7029 3.88387 31.7029 3.53805 31.9478 3.45642L33.3854 2.97776C33.7014 2.8724 33.9886 2.69489 34.2241 2.4593C34.4596 2.2237 34.6369 1.9365 34.7421 1.62046L35.2208 0.18375C35.3025 -0.0611433 35.6483 -0.0611433 35.73 0.18375L36.2087 1.6212C36.3141 1.93719 36.4916 2.22429 36.7272 2.45976C36.9628 2.69522 37.2501 2.87258 37.5661 2.97776L39.003 3.45642C39.0566 3.47402 39.1033 3.5081 39.1365 3.55381C39.1696 3.59952 39.1874 3.65452 39.1874 3.71096C39.1874 3.7674 39.1696 3.82239 39.1365 3.8681C39.1033 3.91381 39.0566 3.9479 39.003 3.9655L37.5654 4.44415C37.2495 4.54944 36.9624 4.72683 36.7269 4.96229C36.4914 5.19775 36.314 5.48481 36.2087 5.80071L35.73 7.23816C35.7124 7.29179 35.6783 7.33849 35.6326 7.37159C35.5869 7.4047 35.5319 7.42252 35.4754 7.42252C35.419 7.42252 35.364 7.4047 35.3182 7.37159C35.2725 7.33849 35.2384 7.29179 35.2208 7.23816L34.7421 5.80071C34.6368 5.48481 34.4594 5.19775 34.2239 4.96229C33.9885 4.72683 33.7014 4.54944 33.3854 4.44415L31.9478 3.9655ZM28.1634 6.83224C28.1313 6.82159 28.1033 6.80109 28.0835 6.77365C28.0637 6.74621 28.053 6.71322 28.053 6.67936C28.053 6.64551 28.0637 6.61252 28.0835 6.58507C28.1033 6.55763 28.1313 6.53713 28.1634 6.52649L29.0258 6.2393C29.4103 6.11091 29.7116 5.80962 29.84 5.42521L30.1272 4.56289C30.1379 4.53075 30.1584 4.50279 30.1858 4.48296C30.2133 4.46314 30.2463 4.45247 30.2801 4.45247C30.314 4.45247 30.347 4.46314 30.3744 4.48296C30.4019 4.50279 30.4224 4.53075 30.433 4.56289L30.7202 5.42521C30.7834 5.6148 30.8899 5.78707 31.0312 5.92837C31.1725 6.06968 31.3448 6.17613 31.5344 6.2393L32.3968 6.52649C32.429 6.53713 32.4569 6.55763 32.4768 6.58507C32.4966 6.61252 32.5073 6.64551 32.5073 6.67936C32.5073 6.71322 32.4966 6.74621 32.4768 6.77365C32.4569 6.80109 32.429 6.82159 32.3968 6.83224L31.5344 7.11943C31.3448 7.18259 31.1725 7.28905 31.0312 7.43035C30.8899 7.57165 30.7834 7.74393 30.7202 7.93351L30.433 8.79583C30.4224 8.82797 30.4019 8.85594 30.3744 8.87576C30.347 8.89558 30.314 8.90625 30.2801 8.90625C30.2463 8.90625 30.2133 8.89558 30.1858 8.87576C30.1584 8.85594 30.1379 8.82797 30.1272 8.79583L29.84 7.93351C29.7768 7.74393 29.6704 7.57165 29.5291 7.43035C29.3877 7.28905 29.2154 7.18259 29.0258 7.11943L28.1634 6.83224ZM27.3849 1.58632C27.3637 1.579 27.3454 1.56527 27.3324 1.54705C27.3195 1.52883 27.3125 1.50702 27.3125 1.48465C27.3125 1.46229 27.3195 1.44048 27.3324 1.42226C27.3454 1.40404 27.3637 1.39031 27.3849 1.38299L27.9593 1.19152C28.2161 1.10618 28.4172 0.905074 28.5026 0.648307L28.6941 0.0739202C28.7014 0.0527896 28.7151 0.0344657 28.7334 0.0214986C28.7516 0.00853055 28.7734 0.00156301 28.7958 0.00156301C28.8181 0.00156301 28.8399 0.00853055 28.8582 0.0214986C28.8764 0.0344657 28.8901 0.0527896 28.8974 0.0739202L29.0889 0.648307C29.131 0.774843 29.202 0.889823 29.2963 0.984119C29.3907 1.07842 29.5056 1.14943 29.6322 1.19152L30.2066 1.38299C30.2278 1.39031 30.2461 1.40404 30.2591 1.42226C30.272 1.44048 30.279 1.46229 30.279 1.48465C30.279 1.50702 30.272 1.52883 30.2591 1.54705C30.2461 1.56527 30.2278 1.579 30.2066 1.58632L29.6322 1.77778C29.5056 1.81988 29.3907 1.89089 29.2963 1.98519C29.202 2.07948 29.131 2.19447 29.0889 2.321L28.8974 2.89465C28.8901 2.91578 28.8764 2.9341 28.8582 2.94707C28.8399 2.96003 28.8181 2.967 28.7958 2.967C28.7734 2.967 28.7516 2.96003 28.7334 2.94707C28.7151 2.9341 28.7014 2.91578 28.6941 2.89465L28.5026 2.32026C28.4172 2.06349 28.2161 1.86238 27.9593 1.77704L27.3849 1.58632Z" fill="#F800C0"/>
<path id="Vector_2" d="M34.494 34.3642L26.5527 26.1537C28.4646 23.5221 29.4967 20.319 29.4932 17.0278C29.4932 8.62089 22.8779 1.78125 14.7466 1.78125C6.61539 1.78125 0 8.62089 0 17.0278C0 25.4346 6.61539 32.2743 14.7466 32.2743C17.93 32.2779 21.0281 31.2108 23.5733 29.234L31.5147 37.4446C31.9167 37.8161 32.441 38.0144 32.9799 37.9988C33.5189 37.9832 34.0317 37.7549 34.4129 37.3607C34.7942 36.9665 35.015 36.4364 35.0301 35.8791C35.0452 35.3219 34.8534 34.7798 34.494 34.3642ZM4.21332 17.0278C4.21332 14.8738 4.83109 12.7683 5.9885 10.9774C7.14592 9.18649 8.79099 7.79064 10.7157 6.96637C12.6404 6.14211 14.7583 5.92644 16.8016 6.34665C18.8448 6.76686 20.7217 7.80406 22.1948 9.32711C23.6679 10.8502 24.6711 12.7906 25.0775 14.9032C25.484 17.0157 25.2754 19.2054 24.4781 21.1953C23.6809 23.1853 22.3308 24.8861 20.5986 26.0828C18.8664 27.2794 16.8299 27.9181 14.7466 27.9181C11.954 27.9147 9.27681 26.7662 7.30216 24.7246C5.3275 22.683 4.21667 19.915 4.21332 17.0278Z" fill="#0023C4"/>
</g>
</svg>
