<svg width="93" height="89" viewBox="0 0 93 89" fill="none" xmlns="http://www.w3.org/2000/svg">
<path d="M75.5967 9.33467C75.0241 9.14382 75.0241 8.33532 75.5967 8.14448L78.9578 7.02542C79.6966 6.7791 80.3679 6.3641 80.9185 5.8133C81.469 5.2625 81.8837 4.59105 82.1296 3.85216L83.2488 0.493253C83.4397 -0.0792893 84.2483 -0.0792893 84.4391 0.493253L85.5583 3.85389C85.8047 4.59265 86.2197 5.26388 86.7706 5.81437C87.3214 6.36487 87.993 6.77951 88.7319 7.02542L92.0912 8.14448C92.2166 8.18562 92.3258 8.26531 92.4032 8.37218C92.4806 8.47904 92.5223 8.60762 92.5223 8.73957C92.5223 8.87152 92.4806 9.0001 92.4032 9.10697C92.3258 9.21383 92.2166 9.29352 92.0912 9.33467L88.7302 10.4537C87.9916 10.6999 87.3204 11.1146 86.7698 11.6651C86.2193 12.2156 85.8045 12.8867 85.5583 13.6253L84.4391 16.9859C84.398 17.1113 84.3183 17.2204 84.2114 17.2978C84.1045 17.3752 83.976 17.4169 83.844 17.4169C83.712 17.4169 83.5834 17.3752 83.4766 17.2978C83.3697 17.2204 83.29 17.1113 83.2488 16.9859L82.1296 13.6253C81.8835 12.8867 81.4687 12.2156 80.9181 11.6651C80.3676 11.1146 79.6964 10.6999 78.9578 10.4537L75.5967 9.33467ZM66.7491 16.0369C66.674 16.012 66.6086 15.9641 66.5623 15.8999C66.5159 15.8357 66.491 15.7586 66.491 15.6795C66.491 15.6003 66.5159 15.5232 66.5623 15.459C66.6086 15.3949 66.674 15.3469 66.7491 15.3221L68.7654 14.6506C69.6642 14.3505 70.3687 13.6461 70.6689 12.7474L71.3404 10.7313C71.3653 10.6562 71.4132 10.5908 71.4774 10.5445C71.5415 10.4981 71.6187 10.4732 71.6978 10.4732C71.777 10.4732 71.8541 10.4981 71.9183 10.5445C71.9825 10.5908 72.0304 10.6562 72.0553 10.7313L72.7268 12.7474C72.8745 13.1906 73.1234 13.5934 73.4538 13.9237C73.7842 14.2541 74.187 14.5029 74.6303 14.6506L76.6465 15.3221C76.7217 15.3469 76.7871 15.3949 76.8334 15.459C76.8797 15.5232 76.9047 15.6003 76.9047 15.6795C76.9047 15.7586 76.8797 15.8357 76.8334 15.8999C76.7871 15.9641 76.7217 16.012 76.6465 16.0369L74.6303 16.7083C74.187 16.856 73.7842 17.1049 73.4538 17.4352C73.1234 17.7656 72.8745 18.1683 72.7268 18.6116L72.0553 20.6276C72.0304 20.7027 71.9825 20.7681 71.9183 20.8145C71.8541 20.8608 71.777 20.8857 71.6978 20.8857C71.6187 20.8857 71.5415 20.8608 71.4774 20.8145C71.4132 20.7681 71.3653 20.7027 71.3404 20.6276L70.6689 18.6116C70.5212 18.1683 70.2723 17.7656 69.9419 17.4352C69.6115 17.1049 69.2087 16.856 68.7654 16.7083L66.7491 16.0369ZM64.9289 3.77235C64.8795 3.75522 64.8367 3.72313 64.8064 3.68053C64.7761 3.63793 64.7598 3.58695 64.7598 3.53466C64.7598 3.48237 64.7761 3.43139 64.8064 3.38879C64.8367 3.34619 64.8795 3.31409 64.9289 3.29697L66.272 2.84934C66.8723 2.64982 67.3426 2.17965 67.5421 1.57935L67.9898 0.236479C68.0069 0.187078 68.039 0.144239 68.0816 0.113922C68.1242 0.0836047 68.1752 0.067314 68.2275 0.067314C68.2798 0.067314 68.3308 0.0836047 68.3734 0.113922C68.416 0.144239 68.4481 0.187078 68.4652 0.236479L68.9129 1.57935C69.0113 1.87518 69.1774 2.144 69.3978 2.36445C69.6183 2.58491 69.8872 2.75093 70.183 2.84934L71.526 3.29697C71.5755 3.31409 71.6183 3.34619 71.6486 3.38879C71.6789 3.43139 71.6952 3.48237 71.6952 3.53466C71.6952 3.58695 71.6789 3.63793 71.6486 3.68053C71.6183 3.72313 71.5755 3.75522 71.526 3.77235L70.183 4.21997C69.8872 4.31839 69.6183 4.48441 69.3978 4.70487C69.1774 4.92532 69.0113 5.19414 68.9129 5.48997L68.4652 6.83111C68.4481 6.88051 68.416 6.92334 68.3734 6.95366C68.3308 6.98398 68.2798 7.00027 68.2275 7.00027C68.1752 7.00027 68.1242 6.98398 68.0816 6.95366C68.039 6.92334 68.0069 6.88051 67.9898 6.83111L67.5421 5.48824C67.3426 4.88794 66.8723 4.41776 66.272 4.21824L64.9289 3.77235Z" fill="white"/>
<path d="M81.5505 80.4038L62.9843 61.2083C67.4542 55.056 69.8672 47.5673 69.859 39.8726C69.859 20.218 54.3928 4.22754 35.3826 4.22754C16.3725 4.22754 0.90625 20.218 0.90625 39.8726C0.90625 59.5272 16.3725 75.5177 35.3826 75.5177C42.8251 75.5261 50.0682 73.0313 56.0188 68.4099L74.585 87.6055C75.5248 88.474 76.7505 88.9377 78.0106 88.9012C79.2707 88.8648 80.4695 88.331 81.3608 87.4094C82.2522 86.4878 82.7685 85.2484 82.8038 83.9456C82.8391 82.6428 82.3906 81.3755 81.5505 80.4038ZM10.7566 39.8726C10.7566 34.837 12.2009 29.9144 14.9069 25.7274C17.6128 21.5404 21.4589 18.277 25.9587 16.3499C30.4585 14.4229 35.41 13.9187 40.1869 14.9011C44.9639 15.8835 49.3518 18.3084 52.7959 21.8691C56.2399 25.4299 58.5853 29.9666 59.5355 34.9055C60.4857 39.8444 59.998 44.9637 58.1341 49.616C56.2702 54.2684 53.1138 58.2448 49.0641 61.0425C45.0144 63.8401 40.2532 65.3334 35.3826 65.3334C28.8538 65.3253 22.5947 62.6402 17.9781 57.8672C13.3615 53.0941 10.7645 46.6228 10.7566 39.8726Z" fill="white"/>
</svg>
