<svg width="28" height="27" viewBox="0 0 28 27" fill="none" xmlns="http://www.w3.org/2000/svg">
<g id="Store">
<g id="Group">
<g id="Group_2">
<path id="Vector" d="M4.375 6.5625V4.375C4.375 2.55932 5.84057 1.09375 7.65625 1.09375H4.375C2.55932 1.09375 1.09375 2.55932 1.09375 4.375V6.5625C1.09375 8.37802 2.34057 9.84375 4.15625 9.84375C4.76651 9.84375 5.33684 9.67755 5.82564 9.38875C4.92499 8.81836 4.375 7.76781 4.375 6.5625Z" fill="#CEE1F2"/>
</g>
</g>
<g id="Group_3">
<path id="Vector_2" d="M26.9062 12.3857C26.3022 12.3857 25.8125 12.8754 25.8125 13.4795V22.969C25.8125 23.5721 25.3218 24.0627 24.7188 24.0627H19.25V17.5002C19.25 15.0879 17.2874 13.1252 14.875 13.1252H13.125C10.7126 13.1252 8.75 15.0879 8.75 17.5002V24.0627H3.28125C2.67816 24.0627 2.1875 23.5721 2.1875 22.969V13.4795C2.1875 12.8754 1.69783 12.3857 1.09375 12.3857C0.489672 12.3857 0 12.8754 0 13.4795V22.969C0 24.7783 1.47197 26.2502 3.28125 26.2502H24.7188C26.528 26.2502 28 24.7783 28 22.969V13.4795C28 12.8754 27.5103 12.3857 26.9062 12.3857ZM10.9375 17.5002C10.9375 16.294 11.9188 15.3127 13.125 15.3127H14.875C16.0812 15.3127 17.0625 16.294 17.0625 17.5002V24.0627H10.9375V17.5002Z" fill="#003DCA"/>
<path id="Vector_3" d="M23.625 0H4.375C1.96263 0 0 1.96263 0 4.375V6.5625C0 8.98242 1.7401 10.9375 4.15625 10.9375C5.46202 10.9375 6.63518 10.3617 7.4375 9.45169C8.23982 10.3617 9.41298 10.9375 10.7188 10.9375C12.0245 10.9375 13.1977 10.3617 14 9.45169C14.8023 10.3617 15.9755 10.9375 17.2812 10.9375C18.587 10.9375 19.7602 10.3617 20.5625 9.45169C21.3648 10.3617 22.538 10.9375 23.8438 10.9375C26.2617 10.9375 28 8.98045 28 6.5625V4.375C28 1.96263 26.0374 0 23.625 0ZM25.8125 6.5625C25.8125 7.64952 25.1362 8.75 23.8438 8.75C22.6376 8.75 21.6562 7.76869 21.6562 6.5625C21.6562 5.95842 21.1666 5.46875 20.5625 5.46875C19.9584 5.46875 19.4688 5.95842 19.4688 6.5625C19.4688 7.76869 18.4874 8.75 17.2812 8.75C16.0751 8.75 15.0938 7.76869 15.0938 6.5625C15.0938 5.95842 14.6041 5.46875 14 5.46875C13.3959 5.46875 12.9062 5.95842 12.9062 6.5625C12.9062 7.76869 11.9249 8.75 10.7188 8.75C9.51256 8.75 8.53125 7.76869 8.53125 6.5625C8.53125 5.95842 8.04158 5.46875 7.4375 5.46875C6.83342 5.46875 6.34375 5.95842 6.34375 6.5625C6.34375 7.76869 5.36244 8.75 4.15625 8.75C2.86377 8.75 2.1875 7.64952 2.1875 6.5625V4.375C2.1875 3.16881 3.16881 2.1875 4.375 2.1875H23.625C24.8312 2.1875 25.8125 3.16881 25.8125 4.375V6.5625Z" fill="#003DCA"/>
</g>
<g id="Group_4">
<path id="Vector_4" d="M5.46875 19.6875C4.86467 19.6875 4.375 19.1978 4.375 18.5938V16.4062C4.375 15.8022 4.86467 15.3125 5.46875 15.3125C6.07283 15.3125 6.5625 15.8022 6.5625 16.4062V18.5938C6.5625 19.1978 6.07283 19.6875 5.46875 19.6875Z" fill="#F800C0"/>
</g>
<g id="Group_5">
<path id="Vector_5" d="M22.5312 19.6875C21.9272 19.6875 21.4375 19.1978 21.4375 18.5938V16.4062C21.4375 15.8022 21.9272 15.3125 22.5312 15.3125C23.1353 15.3125 23.625 15.8022 23.625 16.4062V18.5938C23.625 19.1978 23.1353 19.6875 22.5312 19.6875Z" fill="#F800C0"/>
</g>
</g>
</svg>
