<svg width="32" height="32" viewBox="0 0 32 32" fill="none" xmlns="http://www.w3.org/2000/svg">
<path d="M16.8772 19.5255L15.2521 20.7505C14.8271 21.0755 14.3021 21.2505 13.7521 21.2505C13.2022 21.2505 12.6771 21.0755 12.2522 20.7505L2.25203 13.2504C1.6519 12.8004 1.25195 12.0753 1.25195 11.2504C1.25195 10.2253 1.87696 9.32526 2.77691 8.9502L16.8772 19.5255Z" fill="#CEE1F2"/>
<path d="M17.6427 14.5695C16.6824 14.5695 15.7221 14.204 14.991 13.4729C14.2826 12.7646 13.8926 11.8229 13.8926 10.8212C13.8926 10.1943 14.0454 9.59081 14.3334 9.05343C14.0454 8.51599 13.8926 7.9126 13.8926 7.2856C13.8926 6.28396 14.2826 5.3422 14.991 4.63394C15.6503 3.97461 16.5119 3.59098 17.4357 3.54111C17.4849 2.6516 17.8485 1.77646 18.5265 1.09839C19.235 0.390068 20.1767 0 21.1782 0C21.8051 0 22.4086 0.152815 22.946 0.440818C23.4835 0.152815 24.0869 0 24.7138 0C25.7155 0 26.6572 0.390068 27.3656 1.09839C28.0248 1.75765 28.4084 2.61922 28.4583 3.54311C29.3478 3.5923 30.223 3.95586 30.9011 4.63394C32.0956 5.82845 32.3143 7.63485 31.5571 9.05343C32.3143 10.4719 32.0956 12.2784 30.9012 13.4729C29.439 14.935 27.0599 14.935 25.5977 13.4729L22.946 10.8211L20.2943 13.4728C19.5633 14.204 18.603 14.5695 17.6427 14.5695ZM16.7588 6.40177C16.2702 6.8904 16.2701 7.68091 16.7588 8.16961C16.9932 8.40405 17.1249 8.72199 17.1249 9.05349C17.1249 9.38506 16.9932 9.703 16.7587 9.93738C16.2702 10.426 16.2702 11.2166 16.7587 11.7052C17.2462 12.1927 18.0393 12.1925 18.5265 11.7052L21.1782 9.05343L18.5286 6.40377C18.5279 6.40308 18.5272 6.4024 18.5265 6.40171C18.0381 5.9132 17.2474 5.91314 16.7588 6.40177ZM24.7138 9.05349L27.3656 11.7052C27.8529 12.1925 28.6459 12.1925 29.1334 11.7052C29.6207 11.2178 29.6207 10.4248 29.1333 9.93738C28.6452 9.44919 28.6452 8.6578 29.1333 8.16961C29.6207 7.68223 29.6207 6.88915 29.1333 6.40177C28.6465 5.91489 27.8546 5.91439 27.367 6.40027C27.3666 6.40077 27.366 6.40127 27.3656 6.40171L24.7138 9.05349ZM20.2944 4.634L22.9461 7.28566L25.5978 4.63394C26.0862 4.14549 26.0864 3.35479 25.5978 2.86623C25.1092 2.37766 24.3186 2.37753 23.83 2.86623C23.5956 3.1006 23.2776 3.23229 22.9461 3.23229C22.6145 3.23229 22.2966 3.1006 22.0621 2.86616C21.5737 2.37766 20.783 2.37753 20.2943 2.86616C19.807 3.35354 19.807 4.14662 20.2944 4.634Z" fill="#F800C0"/>
<path d="M18.7502 29.5003H15.0002V22.2868C15.3548 22.1614 15.6908 21.9824 15.9988 21.7514L19.2434 19.3178C19.7958 18.9036 19.9076 18.1201 19.4934 17.5678C19.0792 17.0156 18.2958 16.9036 17.7434 17.3178L14.4988 19.7513C14.2817 19.9141 14.0229 20.0001 13.7502 20.0001C13.4774 20.0001 13.2187 19.9141 13.0016 19.7513L3.00141 12.2511C2.68278 12.0122 2.50009 11.6474 2.50009 11.25C2.50009 10.5608 3.06085 10 3.75011 10H11.0945C11.7848 10 12.3445 9.4404 12.3445 8.75002C12.3445 8.05963 11.7848 7.5 11.0945 7.5H3.75005C1.68227 7.5 0 9.18227 0 11.25C0 12.4244 0.56132 13.5464 1.50146 14.2513L11.5015 21.7513C11.8095 21.9824 12.1455 22.1614 12.5002 22.2868V29.5003H8.75011C8.05973 29.5003 7.5001 30.0599 7.5001 30.7503C7.5001 31.4407 8.05973 32.0003 8.75011 32.0003H18.7502C19.4406 32.0003 20.0003 31.4407 20.0003 30.7503C20.0003 30.0599 19.4406 29.5003 18.7502 29.5003Z" fill="#003DCA"/>
</svg>
