<svg width="22" height="18" viewBox="0 0 22 18" fill="none" xmlns="http://www.w3.org/2000/svg">
<path d="M4 13V5C4 2.79085 5.79085 1 8 1H5C2.79085 1 1 2.79085 1 5V13C1 15.2091 2.79085 17 5 17H8C5.79085 17 4 15.2091 4 13Z" fill="#CEE1F2"/>
<path d="M5 18H17C19.757 18 22 15.757 22 13V9C22 8.4477 21.5523 8 21 8C20.4477 8 20 8.4477 20 9V13C20 14.6542 18.6542 16 17 16H5C3.3458 16 2 14.6542 2 13V5C2 3.3458 3.3458 2 5 2H17C18.6542 2 20 3.3458 20 5C20 5.5523 20.4477 6 21 6C21.5523 6 22 5.5523 22 5C22 2.243 19.757 0 17 0H5C2.243 0 0 2.243 0 5V13C0 15.757 2.243 18 5 18Z" fill="#003DCA"/>
<path d="M9 14C9.46395 14 9.92745 13.8909 10.3405 13.6844L14.3405 11.6844C15.3641 11.1726 16 10.144 16 9C16 7.85605 15.3641 6.82745 14.3405 6.31565L10.3405 4.31565C9.92745 4.10915 9.46395 4 9 4C7.3458 4 6 5.3458 6 7V11C6 12.6542 7.3458 14 9 14ZM8 7C8 6.4486 8.4486 6 9 6C9.1573 6 9.30735 6.03515 9.446 6.1045L13.446 8.1045C13.7877 8.27535 14 8.6185 14 9C14 9.3815 13.7877 9.72465 13.446 9.8955L9.446 11.8955C9.30735 11.9648 9.1573 12 9 12C8.4486 12 8 11.5514 8 11V7Z" fill="#F800C0"/>
</svg>
